<?xml version="1.0" standalone="no"?>
<!DOCTYPE svg PUBLIC "-//W3C//DTD SVG 1.1//EN" "http://www.w3.org/Graphics/SVG/1.1/DTD/svg11.dtd" >
<svg>
<metadata>
Created by FontForge 20120731 at Sun Jun 30 11:44:56 2019
 By www
Copyright (c) 2012 by Juri Zaech. All rights reserved.
</metadata>
<defs>
<font id="FrontageW00-3D" horiz-adv-x="590" >
  <font-face 
    font-family="FrontageW00-3D"
    font-weight="400"
    font-stretch="normal"
    units-per-em="1000"
    panose-1="2 0 5 5 0 0 0 2 0 4"
    ascent="800"
    descent="-200"
    x-height="725"
    cap-height="725"
    bbox="-125 -300 1376 975"
    underline-thickness="50"
    underline-position="-125"
    unicode-range="U+0020-2212"
  />
<missing-glyph horiz-adv-x="699" 
 />
    <glyph glyph-name=".notdef" horiz-adv-x="699" 
 />
    <glyph glyph-name=".null" horiz-adv-x="0" 
 />
    <glyph glyph-name="nonmarkingreturn" horiz-adv-x="333" 
 />
    <glyph glyph-name="space" unicode=" " horiz-adv-x="550" 
 />
    <glyph glyph-name="exclam" unicode="!" 
d="M420 725v-550l-50 -50h50v-150l-100 -100h-150v150l50 50h-50v550l100 100h150zM395 198v502h-100v-502h100zM395 0v100h-100v-100h100z" />
    <glyph glyph-name="quotedbl" unicode="&#x22;" horiz-adv-x="675" 
d="M425 725h150v-250l-100 -100h-150v75l-75 -75h-150v250l100 100h150v-75zM325 500v200h-100v-200h100zM550 500v200h-100v-200h100z" />
    <glyph glyph-name="numbersign" unicode="#" horiz-adv-x="1000" 
d="M844 400l-100 -100h76l-37 -150l-100 -100h-18l-18 -75l-100 -100h-154l21 88l-88 -88h-154l42 175h-94l36 150l100 100h-76l36 150l100 100h19l18 75l100 100h154l-21 -88l88 88h154l-42 -175h94zM849 525h-95l42 175h-103l-42 -175h-118l42 175h-103l-42 -175h-95
l-24 -100h95l-36 -150h-95l-24 -100h95l-42 -175h103l42 175h118l-43 -175h103l42 175h95l25 100h-95l36 150h95zM591 275h-118l36 150h118l-36 -150v0z" />
    <glyph glyph-name="dollar" unicode="$" horiz-adv-x="780" 
d="M520 -43v-57l-100 -100h-150v88q-54 19 -92.5 61.5t-51.5 99.5l100 100l82 29q-40 7 -74.5 26.5t-59.5 49t-39.5 67t-14.5 79.5q0 47 17.5 87.5t48.5 71.5l84 84v57l100 100h150v-88q54 -19 92.5 -61.5t51.5 -99.5l-100 -100l-82 -29q40 -7 74.5 -26.5t59.5 -49t39.5 -67
t14.5 -79.5q0 -47 -17.5 -87.5t-48.5 -71.5zM377 168q12 -24 36 -36q-12 24 -36 36zM413 432q-12 24 -36 36q12 -24 36 -36zM645 200q0 41 -16 77.5t-43 63.5t-63.5 43t-77.5 16q-42 0 -71 29t-29 71t29 71t71 29q32 0 57.5 -19t36.5 -48l94 34q-17 47 -53.5 80.5
t-84.5 46.5v80h-100v-80q-32 -9 -59.5 -27t-47.5 -43.5t-31.5 -57t-11.5 -66.5q0 -42 15.5 -78.5t42.5 -63.5t63.5 -42.5t78.5 -15.5t71 -29t29 -71t-29 -71t-71 -29q-33 0 -58.5 19t-35.5 48l-95 -34q17 -47 53.5 -80.5t85.5 -46.5v-85h100v85q32 8 59.5 26.5t47.5 44
t31.5 57t11.5 66.5z" />
    <glyph glyph-name="percent" unicode="%" horiz-adv-x="1031" 
d="M376 369q-20 -20 -47.5 -32t-58.5 -12t-58.5 12t-47.5 32t-32 47.5t-12 58.5t12 58.5t32 47.5l100 100q20 20 47.5 32t58.5 12t58.5 -12t47.5 -32t32 -47.5t12 -58.5t-12 -58.5t-32 -47.5zM495 575q0 26 -10 48.5t-27 39.5t-39.5 27t-48.5 10t-48.5 -10t-39.5 -27
t-27 -39.5t-10 -48.5t10 -48.5t27 -39.5t39.5 -27t48.5 -10t48.5 10t39.5 27t27 39.5t10 48.5zM370 650q31 0 53 -22t22 -53t-22 -53t-53 -22t-53 22t-22 53t22 53t53 22zM333 -49l-100 -100l-99 76l548 723l100 100l99 -76zM846 669l-60 46l-517 -684l60 -45zM767 -81
q-20 -20 -47.5 -32t-58.5 -12t-58.5 12t-47.5 32t-32 47.5t-12 58.5t12 58.5t32 47.5l100 100q20 20 47 32t59 12q31 0 58.5 -12t47.5 -32t32 -47.5t12 -58.5t-12 -58.5t-32 -47.5zM886 125q0 26 -10 48.5t-27 39.5t-39.5 27t-48.5 10t-48.5 -10t-39.5 -27t-27 -39.5
t-10 -48.5t10 -48.5t27 -39.5t39.5 -27t48.5 -10t48.5 10t39.5 27t27 39.5t10 48.5zM761 200q31 0 53 -22t22 -53t-22 -53t-53 -22q-32 0 -53.5 22t-21.5 53t21.5 53t53.5 22z" />
    <glyph glyph-name="ampersand" unicode="&#x26;" horiz-adv-x="960" 
d="M770 196l90 -90l-206 -206l-91 90l-49 -49q-33 -33 -74.5 -49.5t-84.5 -16.5t-84.5 16.5t-74.5 49.5t-49.5 74.5t-16.5 84.5t16.5 84.5t49.5 74.5l49 50l-17 17q-26 26 -39 58t-13 66t12.5 66t38.5 58h1l100 100q25 25 57.5 38t66 13t65.5 -13t58 -38q25 -26 38 -58
t13 -66t-13 -66t-38 -58l-18 -17l106 -107l91 91l106 -106zM526 129q-15 -15 -33.5 -22t-37.5 -7t-37.5 7t-33.5 22t-22 33.5t-7 37.5t7 37.5t22 33.5l67 67l142 -142zM754 35l71 71l-91 90l91 91l-71 71l-91 -91l-141 142l35 35q22 22 33 49.5t11 56t-11 56.5t-33 50
t-49.5 33t-56 11t-56.5 -11t-50 -33t-33 -50t-11 -56.5t11 -56t33 -49.5l36 -35l-68 -68q-29 -29 -44 -66t-15 -75t15 -75t44 -66q30 -30 67 -44.5t75 -14.5t75 14.5t66 44.5l67 67zM416 515q-15 14 -15 35t15 35q14 15 35 15t36 -15q14 -14 14 -35t-14 -35l-36 -36z" />
    <glyph glyph-name="quotesingle" unicode="'" horiz-adv-x="450" 
d="M100 625l100 100h150v-250l-100 -100h-150v250zM325 500v200h-100v-200h100z" />
    <glyph glyph-name="parenleft" unicode="(" horiz-adv-x="548" 
d="M350 350q0 -93 25.5 -177t72.5 -157l-100 -100l-130 -75q-57 90 -87.5 193t-30.5 216t30.5 216t87.5 193l100 100l130 -75q-47 -73 -72.5 -157t-25.5 -177zM326 725q-48 -83 -74 -177.5t-26 -197.5t26 -197.5t74 -177.5l87 50q-42 72 -64.5 153.5t-22.5 171.5t22.5 171.5
t64.5 153.5z" />
    <glyph glyph-name="parenright" unicode=")" horiz-adv-x="547" 
d="M447 350q0 -113 -30.5 -216t-86.5 -193l-100 -100l-130 75q46 73 71.5 157t25.5 177t-25.5 177t-71.5 157l100 100l130 75q56 -90 86.5 -193t30.5 -216zM234 675q42 -72 64.5 -153.5t22.5 -171.5t-22.5 -171.5t-64.5 -153.5l87 -50q48 83 74 177.5t26 197.5t-26 197.5
t-74 177.5z" />
    <glyph glyph-name="asterisk" unicode="*" horiz-adv-x="1004" 
d="M738 329l176 -102l-75 -130l-100 -100l-112 65v-87l-100 -100h-150v245l-212 -123l-75 130l100 100l75 44l-175 101l75 130l100 100l112 -64v87l100 100h150v-245l212 122l75 -130l-100 -100zM830 568l-228 -131v263h-100v-263l-228 131l-50 -86l228 -132l-228 -132
l50 -86l228 131v-263h100v263l228 -131l50 86l-228 132l228 132z" />
    <glyph glyph-name="plus" unicode="+" horiz-adv-x="850" 
d="M750 425v-150l-100 -100h-100v-100l-100 -100h-150v200h-200v150l100 100h100v100l100 100h150v-200h200zM525 400v200h-100v-200h-200v-100h200v-200h100v200h200v100h-200z" />
    <glyph glyph-name="comma" unicode="," horiz-adv-x="450" 
d="M200 125h150v-131l-60 -119l-100 -100h-90v250zM325 0v100h-100v-200h50z" />
    <glyph glyph-name="hyphen" unicode="-" 
d="M520 425v-150l-100 -100h-350v150l100 100h350zM495 300v100h-300v-100h300z" />
    <glyph glyph-name="period" unicode="." horiz-adv-x="450" 
d="M100 25l100 100h150v-150l-100 -100h-150v150zM325 0v100h-100v-100h100z" />
    <glyph glyph-name="slash" unicode="/" horiz-adv-x="710" 
d="M680 683l-420 -740l-100 -100l-130 74l419 740l100 100zM251 -23l395 696l-87 50l-395 -696z" />
    <glyph glyph-name="zero" unicode="0" horiz-adv-x="990" 
d="M810 85l-20 -20t-29.5 -30t-30 -30t-20.5 -20q-51 -51 -119 -80.5t-146 -29.5t-146 29.5t-119 80.5t-80.5 119t-29.5 146t29.5 146.5t81.5 119.5l20 20t29.5 30t30 30t20.5 20q51 51 118.5 80t145.5 29t146 -29.5t119 -80.5t80.5 -119t29.5 -146t-29.5 -146t-80.5 -119z
M545 125q27 0 52.5 6.5t48.5 17.5q11 23 17.5 48.5t6.5 52.5q0 46 -17.5 87t-48.5 72t-72 48.5t-87 17.5q-27 0 -52.5 -6.5t-48.5 -17.5q-11 -23 -17.5 -48.5t-6.5 -52.5q0 -47 17.5 -87.5t48.5 -71.5t71.5 -48.5t87.5 -17.5zM895 350q0 72 -27.5 136t-75 111.5t-111.5 75
t-136 27.5t-136 -27.5t-111.5 -75t-75 -111.5t-27.5 -136t27.5 -136t75 -111.5t111.5 -75t136 -27.5t136 27.5t111.5 75t75 111.5t27.5 136zM545 600q52 0 97.5 -19.5t79.5 -53.5t53.5 -79.5t19.5 -97.5t-19.5 -97.5t-53.5 -79.5t-79.5 -53.5t-97.5 -19.5t-97.5 19.5
t-79.5 53.5t-53.5 79.5t-19.5 97.5t19.5 97.5t53.5 79.5t79.5 53.5t97.5 19.5z" />
    <glyph glyph-name="one" unicode="1" 
d="M420 725v-750l-100 -100h-150v750l100 100h150zM395 0v700h-100v-700h100z" />
    <glyph glyph-name="two" unicode="2" horiz-adv-x="839" 
d="M492 125h217v-150l-100 -100h-539l366 435q23 26 23 65q0 21 -8 39t-21.5 31.5t-31.5 21.5t-39 8q0 -25 11 -45l11 -23l-100 -100l-134 -67l-11 23q-13 25 -20 53.5t-7 58.5q0 52 19.5 97t53.5 79l100 100q35 35 80 54.5t97 19.5t97.5 -19.5t79.5 -53.5t53.5 -79.5
t19.5 -97.5q0 -46 -15.5 -87.5t-42.5 -74.5zM632 330q25 29 38.5 65.5t13.5 78.5q0 47 -17.5 88t-48 71.5t-71.5 48t-88 17.5t-87.5 -17.5t-71.5 -48t-48.5 -71.5t-17.5 -88q0 -27 6.5 -52t17.5 -48l90 44q-14 26 -14 56q0 26 10 48.5t27 39.5t39.5 27t48.5 10t48.5 -10
t39.5 -27t27 -39.5t10 -48.5q0 -45 -29 -80l-331 -394h460v100h-245z" />
    <glyph glyph-name="three" unicode="3" horiz-adv-x="830" 
d="M540 453q33 -15 60 -38t46.5 -52.5t30.5 -64.5t11 -73q0 -51 -19.5 -96t-52.5 -79q-6 -7 -20.5 -21t-30 -30t-29.5 -30l-20 -20q-34 -35 -79.5 -54.5t-98.5 -19.5q-38 0 -72.5 10.5t-64 30t-53 46.5t-38.5 59l100 100l132 76q9 -31 35 -51.5t61 -20.5q0 42 -29 71t-71 29
h-163l166 250h-189v150l100 100h468zM673 700h-396v-100h210l-165 -250h116q26 0 48.5 -10t39.5 -27t27 -39.5t10 -48.5t-10 -48.5t-27 -39.5t-39.5 -27t-48.5 -10q-35 0 -63.5 17t-44.5 45l-87 -50q29 -51 80.5 -81.5t114.5 -30.5q46 0 87 17.5t72 48.5t48.5 71.5
t17.5 87.5q0 38 -12 72.5t-33.5 63t-51 49t-64.5 31.5z" />
    <glyph glyph-name="four" unicode="4" horiz-adv-x="895" 
d="M775 150l-100 -100v-75l-100 -100h-150v175h-305l137 588l100 100l146 -34l-48 -206l70 102h150v-300h100v-150zM650 275v300h-100v-300h-173l96 410l-97 23l-125 -533h299v-175h100v175h100v100h-100zM409 300h16v69z" />
    <glyph glyph-name="five" unicode="5" horiz-adv-x="838" 
d="M458 475q52 0 97.5 -19.5t79.5 -53.5t53.5 -79.5t19.5 -97.5q0 -53 -20 -98.5t-54 -79.5l-20 -20t-30 -29.5t-30 -30t-21 -20.5q-34 -34 -79 -53t-96 -19q-38 0 -73 10.5t-64.5 30t-52.5 46.5t-38 60l100 100l131 76q9 -32 35.5 -52.5t61.5 -20.5q0 42 -29 71t-71 29
q-12 0 -22.5 -2.5t-21.5 -7.5l-46 -47l-132 53l48 404l100 100h374v-150l-100 -100h-153l-1 -6q27 6 54 6zM458 450q-22 0 -42.5 -4t-40.5 -12l20 166h238v100h-327l-43 -363l94 -38q17 23 43.5 37t57.5 14q26 0 48.5 -10t39.5 -27t27 -39.5t10 -48.5t-10 -48.5t-27 -39.5
t-39.5 -27t-48.5 -10q-35 0 -63.5 17t-44.5 45l-87 -50q29 -51 80.5 -81.5t114.5 -30.5q46 0 87 17.5t72 48.5t48.5 71.5t17.5 87.5q0 46 -17.5 87t-48.5 72t-72 48.5t-87 17.5z" />
    <glyph glyph-name="six" unicode="6" horiz-adv-x="820" 
d="M537 -50q-34 -34 -79.5 -53.5t-97.5 -19.5t-97.5 19.5t-79.5 53.5t-53.5 79.5t-19.5 97.5q0 61 28 115l208 420l100 100l134 -66l-108 -219q49 -3 92.5 -23.5t76 -54t51 -78t18.5 -94.5q0 -52 -19.5 -97.5t-53.5 -79.5zM360 227q0 -42 29 -71t71 -29q0 42 -29 71t-71 29z
M235 225q0 -47 17.5 -87.5t48.5 -71.5t71.5 -48.5t87.5 -17.5q46 0 87 17.5t72 48.5t48.5 71.5t17.5 87.5q0 46 -17.5 87t-48.5 72t-72 48.5t-87 17.5q-8 0 -15 -0.5t-14 -1.5l116 235l-90 44l-197 -399q-25 -48 -25 -103zM460 350q26 0 48.5 -10t39.5 -27t27 -39.5
t10 -48.5t-10 -48.5t-27 -39.5t-39.5 -27t-48.5 -10t-48.5 10t-39.5 27t-27 39.5t-10 48.5q0 29 13 55q17 32 46.5 51t65.5 19z" />
    <glyph glyph-name="seven" unicode="7" horiz-adv-x="848" 
d="M758 725l-174 -400h48v-150l-100 -100h-57l-51 -116l-100 -100l-137 60l68 156h-48v150l100 100h57l65 150h-309v150l100 100h538zM245 700v-100h322l-130 -300h-105v-100h61l-73 -168l91 -40l91 208h105v100h-61l174 400h-475z" />
    <glyph glyph-name="eight" unicode="8" horiz-adv-x="800" 
d="M527 -52q-35 -34 -80 -53.5t-97 -19.5t-97.5 19.5t-79.5 53.5t-53.5 79.5t-19.5 97.5q0 57 23 105t62 82q-17 24 -26 52.5t-9 60.5q0 42 15.5 78t43.5 64l20 20t30 29.5t30 30t20 20.5q27 27 63 42.5t78 15.5q41 0 77.5 -16t63.5 -43t43 -63.5t16 -77.5q0 -32 -9 -60.5
t-26 -52.5q39 -34 62 -82t23 -105q0 -52 -19.5 -97t-53.5 -80zM350 225q0 -42 29 -71t71 -29q0 42 -29 71t-71 29zM580 408q21 23 33 53t12 64q0 36 -13.5 68t-37.5 56t-56 37.5t-68 13.5t-68 -13.5t-56 -37.5t-37.5 -56t-13.5 -68q0 -34 12 -64t32 -53q-43 -30 -68.5 -78
t-25.5 -105q0 -47 17.5 -87.5t48.5 -71.5t71.5 -48.5t87.5 -17.5q46 0 87 17.5t72 48.5t48.5 71.5t17.5 87.5q0 57 -25.5 105t-69.5 78zM375 525q0 31 21.5 53t53.5 22q31 0 53 -22t22 -53t-22 -53t-53 -22q-32 0 -53.5 22t-21.5 53zM450 100q-26 0 -48.5 10t-39.5 27
t-27 39.5t-10 48.5t10 48.5t27 39.5t39.5 27t48.5 10t48.5 -10t39.5 -27t27 -39.5t10 -48.5t-10 -48.5t-27 -39.5t-39.5 -27t-48.5 -10z" />
    <glyph glyph-name="nine" unicode="9" horiz-adv-x="780" 
d="M440 725q52 0 97.5 -19.5t79.5 -53.5t53.5 -79.5t19.5 -97.5q0 -61 -28 -115l-208 -420l-100 -100l-134 66l108 219q-50 2 -93.5 22.5t-75.5 54.5t-50.5 78.5t-18.5 94.5q0 52 19.5 97t53.5 80l100 100q34 34 79.5 53.5t97.5 19.5zM340 475q0 -42 29 -71t71 -29
q0 42 -29 71t-71 29zM665 475q0 46 -17.5 87t-48.5 72t-72 48.5t-87 17.5q-47 0 -87.5 -17.5t-71.5 -48.5t-48.5 -72t-17.5 -87q0 -47 17.5 -87.5t48.5 -71.5t71.5 -48.5t87.5 -17.5q8 0 14.5 0.5t14.5 1.5l-116 -235l90 -44l197 399q25 48 25 103zM440 350q-26 0 -48.5 10
t-39.5 27t-27 39.5t-10 48.5t10 48.5t27 39.5t39.5 27t48.5 10t48.5 -10t39.5 -27t27 -39.5t10 -48.5q0 -29 -13 -55l-1 -2q-16 -31 -45.5 -49.5t-65.5 -18.5z" />
    <glyph glyph-name="colon" unicode=":" horiz-adv-x="450" 
d="M100 25l100 100h150v-150l-100 -100h-150v150zM325 0v100h-100v-100h100zM100 425l100 100h150v-150l-100 -100h-150v150zM325 400v100h-100v-100h100z" />
    <glyph glyph-name="semicolon" unicode=";" horiz-adv-x="450" 
d="M200 125h150v-131l-60 -119l-100 -100h-90v250zM325 0v100h-100v-200h50zM100 425l100 100h150v-150l-100 -100h-150v150zM325 400v100h-100v-100h100z" />
    <glyph glyph-name="less" unicode="&#x3c;" horiz-adv-x="822" 
d="M582 375l-102 -51l202 -99l-67 -135l-100 -100l-395 194v132l100 100l395 194l67 -135zM245 400v-100l359 -176l44 90l-278 136l278 136l-44 90z" />
    <glyph glyph-name="equal" unicode="=" horiz-adv-x="850" 
d="M750 375l-50 -50h50v-150l-100 -100h-550v150l50 50h-50v150l100 100h550v-150zM725 400v100h-500v-100h500zM725 200v100h-500v-100h500z" />
    <glyph glyph-name="greater" unicode="&#x3e;" horiz-adv-x="822" 
d="M702 416v-132l-100 -100l-395 -194l-67 135l101 100l102 50l-203 100l67 135l100 100zM318 576l-44 -90l278 -136l-278 -136l44 -90l359 176v100z" />
    <glyph glyph-name="question" unicode="?" horiz-adv-x="703" 
d="M395 725q49 0 92.5 -18.5t76 -51t51 -76t18.5 -92.5t-18.5 -92t-50.5 -75l-53 -53q-18 -18 -41 -40v-52l-50 -50h50v-150l-100 -100h-150v150l50 50h-50v225l100 100h62q-5 32 -29 53.5t-58 21.5q-7 0 -11 -1l-75 -75l-139 62q8 27 22.5 50.5t34.5 43.5l101 101
q32 32 75 50.5t92 18.5zM445 0v100h-100v-100h100zM395 700q-65 0 -117 -34.5t-77 -91.5l92 -40q13 29 40.5 47.5t61.5 18.5q24 0 44.5 -9t35.5 -24t24 -35.5t9 -43.5t-9 -43.5t-24 -36t-35.5 -24.5t-44.5 -9h-50v-175h100v81q35 9 65 28t51.5 46.5t34 61t12.5 71.5
q0 44 -16.5 82.5t-45.5 67.5t-68 45.5t-83 16.5z" />
    <glyph glyph-name="at" unicode="@" horiz-adv-x="1030" 
d="M774 91q-11 -11 -23.5 -20.5t-26.5 -17.5l16 -35l-100 -100q-39 -20 -83 -31.5t-92 -11.5q-78 0 -146 29.5t-119 80.5t-80.5 119t-29.5 146t29.5 146t80.5 119l20 20t29.5 30t30 30t20.5 20q51 51 119 80.5t146 29.5t146 -29.5t119 -80.5t80.5 -119t29.5 -146
q0 -47 -17.5 -87.5t-48.5 -71.5zM441 474q-40 -4 -77 -23q-19 -37 -23 -77zM565 700q-72 0 -136 -27.5t-111.5 -75t-75 -111.5t-27.5 -136t27.5 -136t75 -111.5t111.5 -75t136 -27.5q38 0 74 8t68 22l-40 91q-24 -10 -49.5 -15.5t-52.5 -5.5q-52 0 -97.5 19.5t-79.5 53.5
t-53.5 79.5t-19.5 97.5t19.5 97.5t53.5 79.5t79.5 53.5t97.5 19.5t97.5 -19.5t79.5 -53.5t53.5 -79.5t19.5 -97.5q0 -42 -29 -71t-71 -29q-18 0 -33 6q15 19 24 43t9 51q0 31 -12 58.5t-32 47.5t-47.5 32t-58.5 12t-58.5 -12t-47.5 -32t-32 -47.5t-12 -58.5t12 -58.5
t32 -47.5t47.5 -32t58.5 -12h8.5t8.5 1q26 -24 60.5 -37.5t72.5 -13.5q41 0 77.5 15.5t63.5 42.5t43 63.5t16 78.5q0 72 -27.5 136t-75 111.5t-111.5 75t-136 27.5zM515 350q0 21 14.5 35.5t35.5 14.5t35.5 -14.5t14.5 -35.5t-14.5 -35.5t-35.5 -14.5t-35.5 14.5t-14.5 35.5
z" />
    <glyph glyph-name="A" unicode="A" horiz-adv-x="1085" 
d="M925 -125h-171l-69 125h-341l-13 -25l-100 -100h-171l432 792l100 99l433 -791zM869 0h114l-391 714l-390 -714h114l68 125h416zM439 225l153 281l154 -281h-307zM515 312l-34 -62h68z" />
    <glyph glyph-name="B" unicode="B" horiz-adv-x="1030" 
d="M854 41q-6 -6 -20 -20.5t-30 -30t-30 -30t-20 -20.5q-31 -30 -71.5 -47.5t-87.5 -17.5h-425v750l100 100h375q46 0 87 -17.5t72 -48.5t48.5 -72t17.5 -87q0 -67 -36 -123q39 -31 62.5 -77t23.5 -100q0 -47 -17.5 -87.5t-48.5 -71.5zM545 475h-125v-50h196q-8 22 -27 36
t-44 14zM419 125h247q-8 22 -27 36t-44 14q-45 0 -88 -0.5t-88 0.5v-50zM798 371q22 26 34.5 59t12.5 70q0 41 -16 77.5t-43 63.5t-63.5 43t-77.5 16h-350v-700h400q41 0 77.5 15.5t63.5 42.5t43 63.5t16 78.5q0 55 -26.5 100t-70.5 71zM645 600q42 0 71 -29t29 -71t-29 -71
t-71 -29h-250v200h250zM695 100h-300v200h300q42 0 71 -29t29 -71t-29 -71t-71 -29z" />
    <glyph glyph-name="C" unicode="C" horiz-adv-x="939" 
d="M750 235l119 -91l-15 -20q-8 -11 -16.5 -20.5t-17.5 -18.5q-6 -6 -20.5 -21t-31 -31t-30.5 -30l-18 -18q-51 -51 -119 -80.5t-146 -29.5t-146 29.5t-119 80.5t-80.5 119t-29.5 146t29.5 146t80.5 119l20 20t29.5 30t30 30t20.5 20q51 51 119 80.5t146 29.5
q92 0 170 -40.5t129 -108.5l15 -20l-100 -100l-119 -91l-15 20q-31 42 -77.5 66t-102.5 24q-27 0 -52.5 -6.5t-48.5 -17.5q-11 -23 -17.5 -48.5t-6.5 -52.5q0 -47 17.5 -87.5t48.5 -71.5t71.5 -48.5t87.5 -17.5q56 0 102.5 24t77.5 66zM555 100q-52 0 -97.5 19.5t-79.5 53.5
t-53.5 79.5t-19.5 97.5t19.5 97.5t53.5 79.5t79.5 53.5t97.5 19.5q62 0 113.5 -27t86.5 -73l79 61q-48 63 -120.5 101t-158.5 38q-72 0 -136 -27.5t-111.5 -75t-75 -111.5t-27.5 -136t27.5 -136t75 -111.5t111.5 -75t136 -27.5q86 0 158.5 38t120.5 101l-79 61
q-35 -46 -86.5 -73t-113.5 -27z" />
    <glyph glyph-name="D" unicode="D" horiz-adv-x="1000" 
d="M810 85l-20 -20t-29.5 -30t-30 -30t-20.5 -20q-51 -51 -119 -80.5t-146 -29.5h-275v750l100 100h275q78 0 146 -29.5t119 -80.5t80.5 -119t29.5 -146t-29.5 -146t-80.5 -119zM545 125q27 0 52.5 6.5t48.5 17.5q11 23 17.5 48.5t6.5 52.5q0 46 -17.5 87t-48.5 72t-72 48.5
t-87 17.5h-25v-350h125zM545 0q72 0 136 27.5t111.5 75t75 111.5t27.5 136t-27.5 136t-75 111.5t-111.5 75t-136 27.5h-250v-700h250zM545 100h-150v500h150q52 0 97.5 -19.5t79.5 -53.5t53.5 -79.5t19.5 -97.5t-19.5 -97.5t-53.5 -79.5t-79.5 -53.5t-97.5 -19.5z" />
    <glyph glyph-name="E" unicode="E" horiz-adv-x="980" 
d="M420 475v-125h300v-150l-75 -75h175v-150l-100 -100h-550v750l100 100h550v-150l-100 -100h-300zM795 600v100h-500v-700h500v100h-400v125h300v100h-300v275h400z" />
    <glyph glyph-name="F" unicode="F" horiz-adv-x="930" 
d="M820 575l-100 -100h-300v-125h300v-150l-100 -100h-200v-125l-100 -100h-150v750l100 100h550v-150zM795 600v100h-500v-700h100v225h300v100h-300v275h400z" />
    <glyph glyph-name="G" unicode="G" horiz-adv-x="989" 
d="M865 375v-250q-8 -11 -16.5 -20.5t-17.5 -18.5l-22.5 -22.5l-30.5 -30.5l-29.5 -29.5t-17.5 -18.5q-51 -51 -119.5 -80.5t-146.5 -29.5t-146 29.5t-119 80.5t-80.5 119t-29.5 146t29.5 146t80.5 119l100 100q51 51 119 80.5t146 29.5q99 0 180.5 -46t132.5 -123l-99 -100
l-105 -81h191zM652 375q-30 45 -79 72.5t-108 27.5q-27 0 -52.5 -6.5t-48.5 -17.5q-11 -23 -17.5 -48.5t-6.5 -52.5q0 -59 27.5 -108t72.5 -79v112l100 100h112zM740 171q-34 -33 -79 -52t-96 -19q-52 0 -97.5 19.5t-79.5 53.5t-53.5 79.5t-19.5 97.5t19.5 97.5t53.5 79.5
t79.5 53.5t97.5 19.5q62 0 113.5 -27t86.5 -73l79 61q-48 63 -120.5 101t-158.5 38q-72 0 -136 -27.5t-111.5 -75t-75 -111.5t-27.5 -136t27.5 -136t75 -111.5t111.5 -75t136 -27.5q85 0 156 36t119 97v217h-275v-100h175v-79z" />
    <glyph glyph-name="H" unicode="H" horiz-adv-x="1090" 
d="M920 -25l-100 -100h-150v225h-250v-125l-100 -100h-150v750l100 100h150v-375h250v275l100 100h150v-750zM795 700v-375h-400v375h-100v-700h100v225h400v-225h100v700h-100z" />
    <glyph glyph-name="I" unicode="I" 
d="M420 -25l-100 -100h-150v750l100 100h150v-750zM395 700h-100v-700h100v700z" />
    <glyph glyph-name="J" unicode="J" horiz-adv-x="848" 
d="M508 -44q-38 -38 -88 -59.5t-107 -21.5q-67 0 -123.5 29t-94.5 78l-15 20l100 100l119 92l15 -20q17 -23 43 -36t56 -13q6 0 11.5 0.5t11.5 1.5q1 5 1.5 11t0.5 12v475l100 100h150v-475q0 -57 -21.5 -106.5t-58.5 -87.5zM563 250q0 -31 -12 -58.5t-32 -47.5t-47.5 -32
t-58.5 -12q-36 0 -67.5 16t-51.5 42l-79 -60q35 -45 86 -71.5t112 -26.5q52 0 97.5 19.5t79.5 53.5t53.5 79.5t19.5 97.5v450h-100v-450z" />
    <glyph glyph-name="K" unicode="K" horiz-adv-x="995" 
d="M890 -25l-100 -100h-177l-193 309v-209l-100 -100h-150v750l100 100h150v-276l161 176l100 100h204l-276 -301zM845 0l-267 427l250 273h-136l-297 -324v324h-100v-700h100v229l112 122l220 -351h118z" />
    <glyph glyph-name="L" unicode="L" horiz-adv-x="920" 
d="M820 125v-150l-100 -100h-550v750l100 100h150v-600h400zM395 700h-100v-700h500v100h-400v600z" />
    <glyph glyph-name="M" unicode="M" horiz-adv-x="1134" 
d="M885 -125h-151l-32 427l-84 -91l-100 -100l-98 106l-19 -242l-100 -100h-150l58 750l100 100h38l267 -289l174 189l100 100h39l57 -750zM857 0h101l-54 700h-5l-281 -304l-282 304h-4l-54 -700h100l36 468l204 -220l203 220z" />
    <glyph glyph-name="N" unicode="N" horiz-adv-x="1090" 
d="M920 725v-750l-100 -100h-41l-359 343v-243l-100 -100h-150v750l100 100h40l360 -343v243l100 100h150zM795 700v-472l-495 472h-5v-700h100v472l494 -472h6v700h-100z" />
    <glyph glyph-name="O" unicode="O" horiz-adv-x="990" 
d="M810 85l-20 -20t-29.5 -30t-30 -30t-20.5 -20q-51 -51 -119 -80.5t-146 -29.5t-146 29.5t-119 80.5t-80.5 119t-29.5 146t29.5 146.5t81.5 119.5l20 20t29.5 30t30 30t20.5 20q51 51 118.5 80t145.5 29t146 -29.5t119 -80.5t80.5 -119t29.5 -146t-29.5 -146t-80.5 -119z
M545 125q27 0 52.5 6.5t48.5 17.5q11 23 17.5 48.5t6.5 52.5q0 46 -17.5 87t-48.5 72t-72 48.5t-87 17.5q-27 0 -52.5 -6.5t-48.5 -17.5q-11 -23 -17.5 -48.5t-6.5 -52.5q0 -47 17.5 -87.5t48.5 -71.5t71.5 -48.5t87.5 -17.5zM895 350q0 72 -27.5 136t-75 111.5t-111.5 75
t-136 27.5t-136 -27.5t-111.5 -75t-75 -111.5t-27.5 -136t27.5 -136t75 -111.5t111.5 -75t136 -27.5t136 27.5t111.5 75t75 111.5t27.5 136zM545 600q52 0 97.5 -19.5t79.5 -53.5t53.5 -79.5t19.5 -97.5t-19.5 -97.5t-53.5 -79.5t-79.5 -53.5t-97.5 -19.5t-97.5 19.5
t-79.5 53.5t-53.5 79.5t-19.5 97.5t19.5 97.5t53.5 79.5t79.5 53.5t97.5 19.5z" />
    <glyph glyph-name="P" unicode="P" horiz-adv-x="900" 
d="M639 155q-38 -37 -87.5 -58.5t-106.5 -21.5h-25v-100l-100 -100h-150v750l100 100h275q57 0 107 -21.5t87.5 -59t59 -87.5t21.5 -107t-21.5 -107t-59.5 -88zM545 325q6 0 11.5 0.5t11.5 1.5q1 5 1.5 11t0.5 12q0 26 -10 48.5t-27 39.5t-39.5 27t-48.5 10h-25v-150h125z
M295 700v-700h100v200h150q52 0 97.5 19.5t79.5 53.5t53.5 79.5t19.5 97.5t-19.5 97.5t-53.5 79.5t-79.5 53.5t-97.5 19.5h-250zM545 300h-150v300h150q31 0 58.5 -12t47.5 -32t32 -47.5t12 -58.5t-12 -58.5t-32 -47.5t-47.5 -32t-58.5 -12z" />
    <glyph glyph-name="Q" unicode="Q" horiz-adv-x="1040" 
d="M902 -25l-100 -100h-179l-20 30q-35 -14 -72 -22t-76 -8q-78 0 -146 29.5t-119 80.5t-80.5 119t-29.5 146t29.5 146t80.5 119l20 20t29.5 30t30 30t20.5 20q51 51 119 80.5t146 29.5t146 -29.5t119 -80.5t80.5 -119t29.5 -146q0 -76 -28 -142t-76 -117zM555 700
q-72 0 -136 -27.5t-111.5 -75t-75 -111.5t-27.5 -136t27.5 -136t75 -111.5t111.5 -75t136 -27.5q85 0 157 37l24 -37h120l-62 94q51 48 81 114t30 142q0 72 -27.5 136t-75 111.5t-111.5 75t-136 27.5zM305 350q0 52 19.5 97.5t53.5 79.5t79.5 53.5t97.5 19.5t97.5 -19.5
t79.5 -53.5t53.5 -79.5t19.5 -97.5q0 -50 -18 -93.5t-49 -76.5l-23 34h-119l60 -93q-23 -10 -48.5 -15.5t-52.5 -5.5q-52 0 -97.5 19.5t-79.5 53.5t-53.5 79.5t-19.5 97.5zM680 239v11q0 46 -17.5 87t-48.5 72t-72 48.5t-87 17.5q-27 0 -52.5 -6.5t-48.5 -17.5
q-11 -23 -17.5 -48.5t-6.5 -52.5q0 -69 35.5 -122t92.5 -81l91 92h131z" />
    <glyph glyph-name="R" unicode="R" horiz-adv-x="963" 
d="M748 -125h-179l-131 200h-18v-100l-100 -100h-150v750l100 100h275q57 0 107 -21.5t87.5 -59t59 -87.5t21.5 -107q0 -75 -35.5 -136t-94.5 -98l158 -241zM545 325q6 0 11.5 0.5t11.5 1.5q1 5 1.5 11t0.5 12q0 26 -10 48.5t-27 39.5t-39.5 27t-48.5 10h-25v-150h125z
M654 225q63 31 102 90.5t39 134.5q0 52 -19.5 97.5t-53.5 79.5t-79.5 53.5t-97.5 19.5h-250v-700h100v200h150h6l131 -200h120zM395 300v300h150q31 0 58.5 -12t47.5 -32t32 -47.5t12 -58.5t-12 -58.5t-32 -47.5t-47.5 -32t-58.5 -12h-150z" />
    <glyph glyph-name="S" unicode="S" horiz-adv-x="780" 
d="M504 -59q-31 -31 -71.5 -48.5t-87.5 -17.5q-40 0 -76 13t-65 36.5t-49 55t-29 69.5l100 100l82 29q-40 7 -74.5 26.5t-59.5 49t-39.5 67t-14.5 79.5q0 47 17.5 87.5t48.5 71.5l100 100q31 31 71.5 48.5t87.5 17.5q40 0 76 -13t65 -36.5t49 -55.5t29 -69l-100 -100
l-82 -29q40 -7 74.5 -26.5t59.5 -49t39.5 -67t14.5 -79.5q0 -47 -17.5 -87.5t-48.5 -71.5zM377 168q12 -24 36 -36q-12 24 -36 36zM413 432q-12 24 -36 36q12 -24 36 -36zM445 600q32 0 58 -19t36 -48l95 34q-11 29 -29.5 53.5t-43 42t-54 27.5t-62.5 10q-42 0 -78.5 -16
t-63.5 -43t-42.5 -63.5t-15.5 -77.5q0 -42 15.5 -78.5t42.5 -63.5t63.5 -42.5t78.5 -15.5t71 -29t29 -71t-29 -71t-71 -29q-33 0 -58.5 19t-35.5 48l-95 -34q10 -29 29 -53.5t43.5 -42t54 -27.5t62.5 -10q41 0 77.5 15.5t63.5 42.5t43 63.5t16 78.5q0 41 -16 77.5t-43 63.5
t-63.5 43t-77.5 16q-42 0 -71 29t-29 71t29 71t71 29z" />
    <glyph glyph-name="T" unicode="T" horiz-adv-x="950" 
d="M850 725v-150l-100 -100h-150v-500l-100 -100h-150v600h-250v150l100 100h650zM225 700v-100h250v-600h100v600h250v100h-600z" />
    <glyph glyph-name="U" unicode="U" horiz-adv-x="1050" 
d="M900 725v-425q0 -68 -25 -126.5t-70 -103.5q-6 -6 -20.5 -20t-30 -30t-29.5 -30l-20 -20q-45 -45 -103.5 -70t-126.5 -25t-127 25.5t-103 69.5t-69.5 103t-25.5 127v425l100 100h150v-425q0 -36 13.5 -68t37.5 -56t56 -37.5t68 -13.5q34 0 63 12q12 28 12 63v425l100 100
h150zM875 700h-100v-400q0 -42 -16 -78.5t-43 -63.5t-63.5 -42.5t-77.5 -15.5q-42 0 -78.5 15.5t-63.5 42.5t-42.5 63.5t-15.5 78.5v400h-100v-400q0 -62 23.5 -117t64 -95.5t95.5 -64t117 -23.5t117 23.5t95.5 64t64 95.5t23.5 117v400z" />
    <glyph glyph-name="V" unicode="V" horiz-adv-x="985" 
d="M565 -25l-100 -100h-45l-410 750l100 100h171l239 -437l184 337l100 100h171zM819 700l-276 -506l-277 506h-114l383 -700h15l383 700h-114z" />
    <glyph glyph-name="W" unicode="W" horiz-adv-x="1133" 
d="M1093 725l-287 -750l-100 -100h-45l-113 295l-75 -195l-100 -100h-45l-288 750l100 100h161l118 -309l81 209l100 100h34l118 -309l81 209l100 100h160zM617 420l161 -420h11l268 700h-107l-167 -435l-166 435l-167 -435l-166 435h-107l268 -700h11z" />
    <glyph glyph-name="X" unicode="X" horiz-adv-x="940" 
d="M750 -125h-177l-135 213l-71 -113l-100 -100h-177l241 385l-229 365l100 100h177l122 -194l59 94l100 100h177l-229 -365l242 -385zM579 360l213 340h-118l-154 -246l-154 246h-119l214 -340l-226 -360h118l167 266l167 -266h118z" />
    <glyph glyph-name="Y" unicode="Y" horiz-adv-x="893" 
d="M873 725l-302 -481v-269l-100 -100h-150v269l-301 481l100 100h177l181 -289l118 189l100 100h177zM710 700l-214 -340l-213 340h-118l281 -449v-251h100v251l282 449h-118z" />
    <glyph glyph-name="Z" unicode="Z" horiz-adv-x="864" 
d="M774 725l-330 -600h313v-150l-100 -100h-567l330 600h-298v150l100 100h552zM247 700v-100h316l-331 -600h500v100h-331l331 600h-485z" />
    <glyph glyph-name="bracketleft" unicode="[" horiz-adv-x="595" 
d="M475 675l-75 -75v-575h75v-150l-100 -100h-225v950l100 100h225v-150zM450 800h-175v-900h175v100h-75v700h75v100z" />
    <glyph glyph-name="backslash" unicode="\" horiz-adv-x="710" 
d="M680 17l-100 -100l-131 -74l-419 740l100 100l130 74zM646 27l-395 696l-87 -50l395 -696z" />
    <glyph glyph-name="bracketright" unicode="]" horiz-adv-x="595" 
d="M445 825v-950l-100 -100h-225v150l75 75v575h-75v150l100 100h225zM245 700h75v-700h-75v-100h175v900h-175v-100z" />
    <glyph glyph-name="asciicircum" unicode="^" horiz-adv-x="616" 
d="M486 270l-100 -100l-128 40l-129 -40l-29 96l100 100l158 48l158 -48zM358 388l-127 -39l15 -48l112 35l112 -35l15 48z" />
    <glyph glyph-name="underscore" unicode="_" horiz-adv-x="700" 
d="M725 -50v-150l-100 -100h-750v150l100 100h750zM700 -175v100h-700v-100h700z" />
    <glyph glyph-name="grave" unicode="`" horiz-adv-x="616" 
d="M486 758l-100 -100l-286 88l29 96l100 100l287 -88zM470 789l15 48l-239 74l-15 -48z" />
    <glyph glyph-name="a" unicode="a" horiz-adv-x="1085" 
d="M925 -125h-171l-69 125h-341l-13 -25l-100 -100h-171l432 792l100 99l433 -791zM869 0h114l-391 714l-390 -714h114l68 125h416zM439 225l153 281l154 -281h-307zM515 312l-34 -62h68z" />
    <glyph glyph-name="b" unicode="b" horiz-adv-x="1030" 
d="M854 41q-6 -6 -20 -20.5t-30 -30t-30 -30t-20 -20.5q-31 -30 -71.5 -47.5t-87.5 -17.5h-425v750l100 100h375q46 0 87 -17.5t72 -48.5t48.5 -72t17.5 -87q0 -67 -36 -123q39 -31 62.5 -77t23.5 -100q0 -47 -17.5 -87.5t-48.5 -71.5zM545 475h-125v-50h196q-8 22 -27 36
t-44 14zM419 125h247q-8 22 -27 36t-44 14q-45 0 -88 -0.5t-88 0.5v-50zM798 371q22 26 34.5 59t12.5 70q0 41 -16 77.5t-43 63.5t-63.5 43t-77.5 16h-350v-700h400q41 0 77.5 15.5t63.5 42.5t43 63.5t16 78.5q0 55 -26.5 100t-70.5 71zM645 600q42 0 71 -29t29 -71t-29 -71
t-71 -29h-250v200h250zM695 100h-300v200h300q42 0 71 -29t29 -71t-29 -71t-71 -29z" />
    <glyph glyph-name="c" unicode="c" horiz-adv-x="939" 
d="M750 235l119 -91l-15 -20q-8 -11 -16.5 -20.5t-17.5 -18.5q-6 -6 -20.5 -21t-31 -31t-30.5 -30l-18 -18q-51 -51 -119 -80.5t-146 -29.5t-146 29.5t-119 80.5t-80.5 119t-29.5 146t29.5 146t80.5 119l20 20t29.5 30t30 30t20.5 20q51 51 119 80.5t146 29.5
q92 0 170 -40.5t129 -108.5l15 -20l-100 -100l-119 -91l-15 20q-31 42 -77.5 66t-102.5 24q-27 0 -52.5 -6.5t-48.5 -17.5q-11 -23 -17.5 -48.5t-6.5 -52.5q0 -47 17.5 -87.5t48.5 -71.5t71.5 -48.5t87.5 -17.5q56 0 102.5 24t77.5 66zM555 100q-52 0 -97.5 19.5t-79.5 53.5
t-53.5 79.5t-19.5 97.5t19.5 97.5t53.5 79.5t79.5 53.5t97.5 19.5q62 0 113.5 -27t86.5 -73l79 61q-48 63 -120.5 101t-158.5 38q-72 0 -136 -27.5t-111.5 -75t-75 -111.5t-27.5 -136t27.5 -136t75 -111.5t111.5 -75t136 -27.5q86 0 158.5 38t120.5 101l-79 61
q-35 -46 -86.5 -73t-113.5 -27z" />
    <glyph glyph-name="d" unicode="d" horiz-adv-x="1000" 
d="M810 85l-20 -20t-29.5 -30t-30 -30t-20.5 -20q-51 -51 -119 -80.5t-146 -29.5h-275v750l100 100h275q78 0 146 -29.5t119 -80.5t80.5 -119t29.5 -146t-29.5 -146t-80.5 -119zM545 125q27 0 52.5 6.5t48.5 17.5q11 23 17.5 48.5t6.5 52.5q0 46 -17.5 87t-48.5 72t-72 48.5
t-87 17.5h-25v-350h125zM545 0q72 0 136 27.5t111.5 75t75 111.5t27.5 136t-27.5 136t-75 111.5t-111.5 75t-136 27.5h-250v-700h250zM545 100h-150v500h150q52 0 97.5 -19.5t79.5 -53.5t53.5 -79.5t19.5 -97.5t-19.5 -97.5t-53.5 -79.5t-79.5 -53.5t-97.5 -19.5z" />
    <glyph glyph-name="e" unicode="e" horiz-adv-x="980" 
d="M420 475v-125h300v-150l-75 -75h175v-150l-100 -100h-550v750l100 100h550v-150l-100 -100h-300zM795 600v100h-500v-700h500v100h-400v125h300v100h-300v275h400z" />
    <glyph glyph-name="f" unicode="f" horiz-adv-x="930" 
d="M820 575l-100 -100h-300v-125h300v-150l-100 -100h-200v-125l-100 -100h-150v750l100 100h550v-150zM795 600v100h-500v-700h100v225h300v100h-300v275h400z" />
    <glyph glyph-name="g" unicode="g" horiz-adv-x="989" 
d="M865 375v-250q-8 -11 -16.5 -20.5t-17.5 -18.5l-22.5 -22.5l-30.5 -30.5l-29.5 -29.5t-17.5 -18.5q-51 -51 -119.5 -80.5t-146.5 -29.5t-146 29.5t-119 80.5t-80.5 119t-29.5 146t29.5 146t80.5 119l100 100q51 51 119 80.5t146 29.5q99 0 180.5 -46t132.5 -123l-99 -100
l-105 -81h191zM652 375q-30 45 -79 72.5t-108 27.5q-27 0 -52.5 -6.5t-48.5 -17.5q-11 -23 -17.5 -48.5t-6.5 -52.5q0 -59 27.5 -108t72.5 -79v112l100 100h112zM740 171q-34 -33 -79 -52t-96 -19q-52 0 -97.5 19.5t-79.5 53.5t-53.5 79.5t-19.5 97.5t19.5 97.5t53.5 79.5
t79.5 53.5t97.5 19.5q62 0 113.5 -27t86.5 -73l79 61q-48 63 -120.5 101t-158.5 38q-72 0 -136 -27.5t-111.5 -75t-75 -111.5t-27.5 -136t27.5 -136t75 -111.5t111.5 -75t136 -27.5q85 0 156 36t119 97v217h-275v-100h175v-79z" />
    <glyph glyph-name="h" unicode="h" horiz-adv-x="1090" 
d="M920 -25l-100 -100h-150v225h-250v-125l-100 -100h-150v750l100 100h150v-375h250v275l100 100h150v-750zM795 700v-375h-400v375h-100v-700h100v225h400v-225h100v700h-100z" />
    <glyph glyph-name="i" unicode="i" 
d="M420 725v-750l-100 -100h-150v750l100 100h150zM395 0v700h-100v-700h100z" />
    <glyph glyph-name="j" unicode="j" horiz-adv-x="848" 
d="M508 -44q-38 -38 -88 -59.5t-107 -21.5q-67 0 -123.5 29t-94.5 78l-15 20l100 100l119 92l15 -20q17 -23 43 -36t56 -13q6 0 11.5 0.5t11.5 1.5q1 5 1.5 11t0.5 12v475l100 100h150v-475q0 -57 -21.5 -106.5t-58.5 -87.5zM563 250q0 -31 -12 -58.5t-32 -47.5t-47.5 -32
t-58.5 -12q-36 0 -67.5 16t-51.5 42l-79 -60q35 -45 86 -71.5t112 -26.5q52 0 97.5 19.5t79.5 53.5t53.5 79.5t19.5 97.5v450h-100v-450z" />
    <glyph glyph-name="k" unicode="k" horiz-adv-x="995" 
d="M890 -25l-100 -100h-177l-193 309v-209l-100 -100h-150v750l100 100h150v-276l161 176l100 100h204l-276 -301zM845 0l-267 427l250 273h-136l-297 -324v324h-100v-700h100v229l112 122l220 -351h118z" />
    <glyph glyph-name="l" unicode="l" horiz-adv-x="920" 
d="M820 125v-150l-100 -100h-550v750l100 100h150v-600h400zM395 700h-100v-700h500v100h-400v600z" />
    <glyph glyph-name="m" unicode="m" horiz-adv-x="1134" 
d="M885 -125h-151l-32 427l-84 -91l-100 -100l-98 106l-19 -242l-100 -100h-150l58 750l100 100h38l267 -289l174 189l100 100h39l57 -750zM857 0h101l-54 700h-5l-281 -304l-282 304h-4l-54 -700h100l36 468l204 -220l203 220z" />
    <glyph glyph-name="n" unicode="n" horiz-adv-x="1090" 
d="M920 725v-750l-100 -100h-41l-359 343v-243l-100 -100h-150v750l100 100h40l360 -343v243l100 100h150zM795 700v-472l-495 472h-5v-700h100v472l494 -472h6v700h-100z" />
    <glyph glyph-name="o" unicode="o" horiz-adv-x="990" 
d="M810 85l-20 -20t-29.5 -30t-30 -30t-20.5 -20q-51 -51 -119 -80.5t-146 -29.5t-146 29.5t-119 80.5t-80.5 119t-29.5 146t29.5 146.5t81.5 119.5l20 20t29.5 30t30 30t20.5 20q51 51 118.5 80t145.5 29t146 -29.5t119 -80.5t80.5 -119t29.5 -146t-29.5 -146t-80.5 -119z
M545 125q27 0 52.5 6.5t48.5 17.5q11 23 17.5 48.5t6.5 52.5q0 46 -17.5 87t-48.5 72t-72 48.5t-87 17.5q-27 0 -52.5 -6.5t-48.5 -17.5q-11 -23 -17.5 -48.5t-6.5 -52.5q0 -47 17.5 -87.5t48.5 -71.5t71.5 -48.5t87.5 -17.5zM895 350q0 72 -27.5 136t-75 111.5t-111.5 75
t-136 27.5t-136 -27.5t-111.5 -75t-75 -111.5t-27.5 -136t27.5 -136t75 -111.5t111.5 -75t136 -27.5t136 27.5t111.5 75t75 111.5t27.5 136zM545 600q52 0 97.5 -19.5t79.5 -53.5t53.5 -79.5t19.5 -97.5t-19.5 -97.5t-53.5 -79.5t-79.5 -53.5t-97.5 -19.5t-97.5 19.5
t-79.5 53.5t-53.5 79.5t-19.5 97.5t19.5 97.5t53.5 79.5t79.5 53.5t97.5 19.5z" />
    <glyph glyph-name="p" unicode="p" horiz-adv-x="900" 
d="M639 155q-38 -37 -87.5 -58.5t-106.5 -21.5h-25v-100l-100 -100h-150v750l100 100h275q57 0 107 -21.5t87.5 -59t59 -87.5t21.5 -107t-21.5 -107t-59.5 -88zM545 325q6 0 11.5 0.5t11.5 1.5q1 5 1.5 11t0.5 12q0 26 -10 48.5t-27 39.5t-39.5 27t-48.5 10h-25v-150h125z
M295 700v-700h100v200h150q52 0 97.5 19.5t79.5 53.5t53.5 79.5t19.5 97.5t-19.5 97.5t-53.5 79.5t-79.5 53.5t-97.5 19.5h-250zM545 300h-150v300h150q31 0 58.5 -12t47.5 -32t32 -47.5t12 -58.5t-12 -58.5t-32 -47.5t-47.5 -32t-58.5 -12z" />
    <glyph glyph-name="q" unicode="q" horiz-adv-x="1040" 
d="M902 -25l-100 -100h-179l-20 30q-35 -14 -72 -22t-76 -8q-78 0 -146 29.5t-119 80.5t-80.5 119t-29.5 146t29.5 146t80.5 119l20 20t29.5 30t30 30t20.5 20q51 51 119 80.5t146 29.5t146 -29.5t119 -80.5t80.5 -119t29.5 -146q0 -76 -28 -142t-76 -117zM555 700
q-72 0 -136 -27.5t-111.5 -75t-75 -111.5t-27.5 -136t27.5 -136t75 -111.5t111.5 -75t136 -27.5q85 0 157 37l24 -37h120l-62 94q51 48 81 114t30 142q0 72 -27.5 136t-75 111.5t-111.5 75t-136 27.5zM305 350q0 52 19.5 97.5t53.5 79.5t79.5 53.5t97.5 19.5t97.5 -19.5
t79.5 -53.5t53.5 -79.5t19.5 -97.5q0 -50 -18 -93.5t-49 -76.5l-23 34h-119l60 -93q-23 -10 -48.5 -15.5t-52.5 -5.5q-52 0 -97.5 19.5t-79.5 53.5t-53.5 79.5t-19.5 97.5zM680 239v11q0 46 -17.5 87t-48.5 72t-72 48.5t-87 17.5q-27 0 -52.5 -6.5t-48.5 -17.5
q-11 -23 -17.5 -48.5t-6.5 -52.5q0 -69 35.5 -122t92.5 -81l91 92h131z" />
    <glyph glyph-name="r" unicode="r" horiz-adv-x="963" 
d="M748 -125h-179l-131 200h-18v-100l-100 -100h-150v750l100 100h275q57 0 107 -21.5t87.5 -59t59 -87.5t21.5 -107q0 -75 -35.5 -136t-94.5 -98l158 -241zM545 325q6 0 11.5 0.5t11.5 1.5q1 5 1.5 11t0.5 12q0 26 -10 48.5t-27 39.5t-39.5 27t-48.5 10h-25v-150h125z
M654 225q63 31 102 90.5t39 134.5q0 52 -19.5 97.5t-53.5 79.5t-79.5 53.5t-97.5 19.5h-250v-700h100v200h150h6l131 -200h120zM395 300v300h150q31 0 58.5 -12t47.5 -32t32 -47.5t12 -58.5t-12 -58.5t-32 -47.5t-47.5 -32t-58.5 -12h-150z" />
    <glyph glyph-name="s" unicode="s" horiz-adv-x="780" 
d="M504 -59q-31 -31 -71.5 -48.5t-87.5 -17.5q-40 0 -76 13t-65 36.5t-49 55t-29 69.5l100 100l82 29q-40 7 -74.5 26.5t-59.5 49t-39.5 67t-14.5 79.5q0 47 17.5 87.5t48.5 71.5l100 100q31 31 71.5 48.5t87.5 17.5q40 0 76 -13t65 -36.5t49 -55.5t29 -69l-100 -100
l-82 -29q40 -7 74.5 -26.5t59.5 -49t39.5 -67t14.5 -79.5q0 -47 -17.5 -87.5t-48.5 -71.5zM377 168q12 -24 36 -36q-12 24 -36 36zM413 432q-12 24 -36 36q12 -24 36 -36zM445 600q32 0 58 -19t36 -48l95 34q-11 29 -29.5 53.5t-43 42t-54 27.5t-62.5 10q-42 0 -78.5 -16
t-63.5 -43t-42.5 -63.5t-15.5 -77.5q0 -42 15.5 -78.5t42.5 -63.5t63.5 -42.5t78.5 -15.5t71 -29t29 -71t-29 -71t-71 -29q-33 0 -58.5 19t-35.5 48l-95 -34q10 -29 29 -53.5t43.5 -42t54 -27.5t62.5 -10q41 0 77.5 15.5t63.5 42.5t43 63.5t16 78.5q0 41 -16 77.5t-43 63.5
t-63.5 43t-77.5 16q-42 0 -71 29t-29 71t29 71t71 29z" />
    <glyph glyph-name="t" unicode="t" horiz-adv-x="950" 
d="M850 725v-150l-100 -100h-150v-500l-100 -100h-150v600h-250v150l100 100h650zM225 700v-100h250v-600h100v600h250v100h-600z" />
    <glyph glyph-name="u" unicode="u" horiz-adv-x="1050" 
d="M900 725v-425q0 -68 -25 -126.5t-70 -103.5q-6 -6 -20.5 -20t-30 -30t-29.5 -30l-20 -20q-45 -45 -103.5 -70t-126.5 -25t-127 25.5t-103 69.5t-69.5 103t-25.5 127v425l100 100h150v-425q0 -36 13.5 -68t37.5 -56t56 -37.5t68 -13.5q34 0 63 12q12 28 12 63v425l100 100
h150zM875 700h-100v-400q0 -42 -16 -78.5t-43 -63.5t-63.5 -42.5t-77.5 -15.5q-42 0 -78.5 15.5t-63.5 42.5t-42.5 63.5t-15.5 78.5v400h-100v-400q0 -62 23.5 -117t64 -95.5t95.5 -64t117 -23.5t117 23.5t95.5 64t64 95.5t23.5 117v400z" />
    <glyph glyph-name="v" unicode="v" horiz-adv-x="985" 
d="M565 -25l-100 -100h-45l-410 750l100 100h171l239 -437l184 337l100 100h171zM819 700l-276 -506l-277 506h-114l383 -700h15l383 700h-114z" />
    <glyph glyph-name="w" unicode="w" horiz-adv-x="1133" 
d="M1093 725l-287 -750l-100 -100h-45l-113 295l-75 -195l-100 -100h-45l-288 750l100 100h161l118 -309l81 209l100 100h34l118 -309l81 209l100 100h160zM617 420l161 -420h11l268 700h-107l-167 -435l-166 435l-167 -435l-166 435h-107l268 -700h11z" />
    <glyph glyph-name="x" unicode="x" horiz-adv-x="940" 
d="M750 -125h-177l-135 213l-71 -113l-100 -100h-177l241 385l-229 365l100 100h177l122 -194l59 94l100 100h177l-229 -365l242 -385zM579 360l213 340h-118l-154 -246l-154 246h-119l214 -340l-226 -360h118l167 266l167 -266h118z" />
    <glyph glyph-name="y" unicode="y" horiz-adv-x="893" 
d="M873 725l-302 -481v-269l-100 -100h-150v269l-301 481l100 100h177l181 -289l118 189l100 100h177zM710 700l-214 -340l-213 340h-118l281 -449v-251h100v251l282 449h-118z" />
    <glyph glyph-name="z" unicode="z" horiz-adv-x="864" 
d="M774 725l-330 -600h313v-150l-100 -100h-567l330 600h-298v150l100 100h552zM247 700v-100h316l-331 -600h500v100h-331l331 600h-485z" />
    <glyph glyph-name="braceleft" unicode="{" horiz-adv-x="646" 
d="M449 100q0 -26 15 -45t38 -27l24 -7l-44 -143l-100 -100l-24 7q-35 10 -64 31t-50 49t-33 62.5t-12 72.5v174q0 34 -26 57l-23 19l40 39q9 16 9 37v174q0 47 17.5 87.5t48.5 71.5l100 100q39 39 93 56l24 7l44 -143l-77 -77v-2v-174q0 -41 -13 -76q13 -35 13 -76v-174z
M324 426q0 -47 -35 -76q17 -14 26 -33.5t9 -42.5v-174q0 -34 10.5 -64.5t29.5 -55.5t45 -43.5t57 -27.5l29 95q-31 10 -51 36t-20 60v174q0 40 -15 76q15 34 15 76v174q0 34 20 60t51 36l-29 95q-31 -9 -57 -27.5t-45 -43.5t-29.5 -55.5t-10.5 -64.5v-174z" />
    <glyph glyph-name="bar" unicode="|" 
d="M420 825v-950l-100 -100h-150v950l100 100h150zM395 -100v900h-100v-900h100z" />
    <glyph glyph-name="braceright" unicode="}" horiz-adv-x="645" 
d="M456 311q-5 -8 -7.5 -16.5t-2.5 -20.5v-174q0 -49 -18 -88.5t-48 -70.5l-100 -100q-37 -39 -92 -56l-24 -7l-44 143l76 77v2v174q0 39 14 76q-14 37 -14 76v174q0 26 -15 45t-38 27l-23 7l44 143l99 100l24 -7q34 -11 63.5 -31.5t50.5 -48.5t33 -62.5t12 -72.5v-174
q0 -17 7 -31.5t19 -25.5l23 -19zM421 600q0 34 -10.5 64.5t-29.5 55.5t-44.5 43.5t-56.5 27.5l-29 -95q31 -10 50.5 -36t19.5 -60v-174q0 -20 4 -39.5t11 -36.5q-7 -18 -11 -37t-4 -39v-174q0 -34 -19.5 -60t-50.5 -36l29 -95q31 9 56.5 27.5t44.5 43.5t29.5 55.5t10.5 64.5
v174q0 23 9.5 42.5t26.5 33.5q-17 14 -26.5 33.5t-9.5 42.5v174z" />
    <glyph glyph-name="asciitilde" unicode="~" horiz-adv-x="677" 
d="M577 340l-100 -100l-20 -16q-27 -22 -59 -31q-32 -10 -66.5 -7t-66.5 20q-28 15 -57 5q-14 -4 -26 -13l-19 -16l-63 77l100 100l19 16q25 21 59 32q32 10 67 7t67 -20q14 -8 28.5 -9t28.5 4q13 3 25 13l19 16zM491 317q14 4 26.5 11t24.5 16l-32 39q-15 -13 -34 -18
q-18 -6 -38 -4.5t-38 11.5q-28 14 -57.5 16.5t-56.5 -5.5q-29 -9 -51 -27l31 -39q17 12 34 18q39 13 77 -7q27 -15 56.5 -17t57.5 6z" />
    <glyph glyph-name="exclamdown" unicode="&#xa1;" 
d="M420 575l-50 -50h50v-550l-100 -100h-150v550l50 50h-50v150l100 100h150v-150zM295 502v-502h100v502h-100zM295 700v-100h100v100h-100z" />
    <glyph glyph-name="cent" unicode="&#xa2;" horiz-adv-x="787" 
d="M589 194l118 -91q-14 -24 -37 -47l-101 -101q-5 -5 -9.5 -9t-9.5 -8v-38l-100 -100h-150v85q-43 12 -79.5 37.5t-63.5 60t-42 77.5t-15 90q0 57 21.5 106.5t58.5 87.5l20.5 20.5l30 30t30 29.5t20.5 20q10 11 19 18v38l100 100h150v-85q50 -14 90 -44.5t67 -73.5
l-100 -100l-118 -91l-15 20q-17 23 -43 36t-56 13q-6 0 -12 -0.5t-11 -1.5q-1 -6 -1.5 -11.5t-0.5 -11.5q0 -26 10 -48.5t27 -39.5t39.5 -27t48.5 -10q30 0 56 13t43 36zM475 100q-31 0 -58.5 12t-47.5 32t-32 47.5t-12 58.5t12 58.5t32 47.5t47.5 32t58.5 12q36 0 67 -16
t52 -43l79 61q-27 35 -65 59.5t-83 33.5v80h-100v-80q-43 -9 -79.5 -31t-63.5 -54.5t-42 -73.5t-15 -86t15 -86t42 -73.5t63.5 -54.5t79.5 -31v-80h100v80q45 9 83 33.5t65 59.5l-79 60q-21 -26 -52 -42t-67 -16z" />
    <glyph glyph-name="sterling" unicode="&#xa3;" horiz-adv-x="910" 
d="M790 -25l-100 -100h-550v150l50 50h-50v150l100 100v100q0 42 15.5 78t42.5 63l100 100q28 28 64 43.5t78 15.5q33 0 62.5 -10t54 -27.5t43 -42t28.5 -53.5l9 -24l-100 -100l-142 -50l-5 16v-109h100v-150l-50 -50h250v-150zM456 100q9 24 9 50v50h100v100h-100v225
q0 31 21.5 53t53.5 22q24 0 43.5 -14t27.5 -36l94 33q-18 51 -63 84t-102 33q-36 0 -68 -13.5t-56 -37.5t-37.5 -56t-13.5 -68v-225h-100v-100h100v-50q0 -21 -14.5 -35.5t-35.5 -14.5h-50v-100h500v100h-309z" />
    <glyph glyph-name="currency" unicode="&#xa4;" horiz-adv-x="830" 
d="M668 447q22 -46 22 -97t-22 -97l62 -62l-206 -206l-62 62q-46 -22 -97 -22t-97 22l-62 -62l-106 106l62 62q-23 46 -23 97t23 97l-62 62l206 206l62 -62q46 22 97 22t97 -22l62 62l106 -106zM412 297q8 -8 20 -15q-4 11 -14 21q-9 9 -21 15q6 -12 15 -21zM637 248
q28 48 28 102t-28 102l58 57l-71 71l-58 -58q-47 28 -101 28t-102 -28l-57 58l-71 -71l57 -57q-27 -48 -27 -102t27 -102l-57 -57l71 -71l57 58q48 -28 102 -28t101 28l58 -58l71 71zM394 279q-15 15 -22 33.5t-7 37.5t7 37.5t22 33.5t33 22t37.5 7t37.5 -7t33 -22
t22.5 -33.5t7.5 -37.5t-7.5 -37.5t-22.5 -33.5t-33 -22t-37.5 -7t-37.5 7t-33 22z" />
    <glyph glyph-name="yen" unicode="&#xa5;" horiz-adv-x="993" 
d="M923 725l-188 -300h61v-150l-50 -50h50v-150l-100 -100h-75l-100 -100h-150v100h-175v150l50 50h-50v150l38 38l-164 262l100 100h177l181 -288l118 188l100 100h177zM760 700l-214 -340l-213 340h-118l188 -300h-82v-100h145l30 -49v-51h-175v-100h175v-100h100v100h175
v100h-175v51l31 49h144v100h-81l188 300h-118z" />
    <glyph glyph-name="brokenbar" unicode="&#xa6;" 
d="M270 825h150v-400l-100 -100h-150v400zM170 175l100 100h150v-400l-100 -100h-150v400zM395 450v350h-100v-350h100zM395 -100v350h-100v-350h100z" />
    <glyph glyph-name="section" unicode="&#xa7;" horiz-adv-x="840" 
d="M720 350q0 -42 -13 -79.5t-36 -69.5q11 -23 17.5 -48.5t6.5 -52.5q0 -47 -17.5 -87.5t-48.5 -71.5l-100 -100q-31 -31 -71.5 -48.5t-87.5 -17.5q-40 0 -76 13t-65 36.5t-49 55t-29 69.5l88 88q-54 33 -86.5 89t-32.5 124q0 42 13 79.5t36 69.5q-11 23 -17.5 48.5
t-6.5 52.5q0 47 17.5 87.5t48.5 71.5l100 100q31 31 71.5 48.5t87.5 17.5q40 0 76 -13t65 -36.5t49 -55.5t29 -69l-88 -88q54 -33 86.5 -89t32.5 -124zM370 350q0 -42 29 -71t71 -29q0 42 -29 71t-71 29zM695 350q0 46 -17.5 87t-48.5 72t-72 48.5t-87 17.5t-90 -19
q-10 22 -10 44q0 42 29 71t71 29q32 0 58 -19t36 -48l95 34q-11 29 -29.5 53.5t-43 42t-54 27.5t-62.5 10q-42 0 -78.5 -16t-63.5 -43t-42.5 -63.5t-15.5 -77.5q0 -29 7.5 -55t21.5 -49q-26 -29 -40 -66.5t-14 -79.5q0 -47 17.5 -87.5t48.5 -71.5t71.5 -48.5t87.5 -17.5
q46 0 90 19q5 -11 7.5 -21.5t2.5 -22.5q0 -42 -29 -71t-71 -29q-33 0 -58.5 19t-35.5 48l-95 -34q10 -29 29 -53.5t43.5 -42t54 -27.5t62.5 -10q41 0 77.5 15.5t63.5 42.5t43 63.5t16 78.5q0 29 -7.5 55t-21.5 49q26 29 40 66.5t14 79.5zM345 350q0 26 10 48.5t27 39.5
t39.5 27t48.5 10t48.5 -10t39.5 -27t27 -39.5t10 -48.5t-10 -48.5t-27 -39.5t-39.5 -27t-48.5 -10t-48.5 10t-39.5 27t-27 39.5t-10 48.5z" />
    <glyph glyph-name="dieresis" unicode="&#xa8;" horiz-adv-x="750" 
d="M228 697q-22 -22 -53 -22t-53 22t-22 53t22 53l100 100q22 22 53 22t53 -22t22 -53t-22 -53zM325 850q0 21 -14.5 35.5t-35.5 14.5t-35.5 -14.5t-14.5 -35.5t14.5 -35.5t35.5 -14.5t35.5 14.5t14.5 35.5zM528 697q-22 -22 -53 -22t-53 22t-22 53t22 53l100 100
q22 22 53 22t53 -22t22 -53t-22 -53zM625 850q0 21 -14.5 35.5t-35.5 14.5t-35.5 -14.5t-14.5 -35.5t14.5 -35.5t35.5 -14.5t35.5 14.5t14.5 35.5z" />
    <glyph glyph-name="copyright" unicode="&#xa9;" 
d="M469 674q25 -26 38 -58t13 -66t-13 -66t-38 -58l-21 -21t-29.5 -29t-29.5 -29t-20 -21q-26 -26 -58 -38.5t-66 -12.5t-66 12.5t-58 38.5t-38.5 58t-12.5 66t12.5 66t38.5 58q7 6 21 20t29 29.5t29 29.5l21 21q26 25 58 38t66 13t66 -13t58 -38zM495 550q0 31 -12 58.5
t-32 47.5t-47.5 32t-58.5 12t-58.5 -12t-47.5 -32t-32 -47.5t-12 -58.5t12 -58.5t32 -47.5t47.5 -32t58.5 -12t58.5 12t47.5 32t32 47.5t12 58.5zM245 549q0 21 8 39.5t21.5 32t32 21.5t39.5 8q25 0 46 -11t35 -29l4 -6l-33 -24l-4 5q-18 24 -48 24q-25 0 -43 -17.5
t-18 -42.5q0 -26 18 -43.5t43 -17.5q30 0 48 24l4 6l33 -25l-4 -5q-14 -19 -35 -30t-46 -11q-21 0 -39.5 8t-32 22t-21.5 32.5t-8 39.5z" />
    <glyph glyph-name="ordfeminine" unicode="&#xaa;" horiz-adv-x="612" 
d="M542 425l-100 -100h-114l-18 33h-93l-33 -33h-114l186 341l100 100zM356 714l-144 -264h57l18 33h138l18 -33h57zM314 533l42 77l42 -77h-84z" />
    <glyph glyph-name="guillemotleft" unicode="&#xab;" horiz-adv-x="738" 
d="M570 350l108 -154l-100 -100l-123 -86l-78 112l-26 -26l-123 -86l-168 240l168 240l100 100l123 -86l-107 -154l7 -10l104 150l100 100l123 -86zM191 350l143 -205l82 58l-103 147l103 147l-82 58zM418 350l143 -205l82 58l-103 147l103 147l-82 58z" />
    <glyph glyph-name="logicalnot" unicode="&#xac;" horiz-adv-x="910" 
d="M760 425v-300l-100 -100h-150v150h-400v150l100 100h550zM235 300h400v-150h100v250h-500v-100z" />
    <glyph glyph-name="registered" unicode="&#xae;" 
d="M469 674q25 -26 38 -58t13 -66t-13 -66t-38 -58l-21 -21t-29.5 -29t-29.5 -29t-20 -21q-26 -26 -58 -38.5t-66 -12.5t-66 12.5t-58 38.5t-38.5 58t-12.5 66t12.5 66t38.5 58q7 6 21 20t29 29.5t29 29.5l21 21q26 25 58 38t66 13t66 -13t58 -38zM495 550q0 31 -12 58.5
t-32 47.5t-47.5 32t-58.5 12t-58.5 -12t-47.5 -32t-32 -47.5t-12 -58.5t12 -58.5t32 -47.5t47.5 -32t58.5 -12t58.5 12t47.5 32t32 47.5t12 58.5zM350 542q14 0 24 10t10 24t-10 24t-24 10h-34v-68h34zM431 448h-48l-35 54h-32v-54h-40v202h74q31 0 52.5 -21.5t21.5 -52.5
q0 -20 -9.5 -36.5t-25.5 -26.5z" />
    <glyph glyph-name="degree" unicode="&#xb0;" horiz-adv-x="490" 
d="M283 411q-17 -17 -39.5 -26.5t-48.5 -9.5t-48.5 10t-39.5 27t-27 39.5t-10 48.5t9.5 48.5t26.5 39.5l101 101q17 17 39.5 26.5t48.5 9.5t48.5 -10t39.5 -27t27 -39.5t10 -48.5t-9.5 -48.5t-26.5 -39.5zM395 600q0 42 -29 71t-71 29t-71 -29t-29 -71t29 -71t71 -29t71 29
t29 71zM295 650q21 0 35.5 -14.5t14.5 -35.5t-14.5 -35.5t-35.5 -14.5t-35.5 14.5t-14.5 35.5t14.5 35.5t35.5 14.5z" />
    <glyph glyph-name="plusminus" unicode="&#xb1;" horiz-adv-x="850" 
d="M525 175h225v-150l-100 -100h-550v150l100 100h100v125h-200v150l100 100h100v100l100 100h150v-200h200v-150l-100 -100h-100v-100zM725 50v100h-500v-100h500zM525 525v200h-100v-200h-200v-100h200v-200h100v200h200v100h-200z" />
    <glyph glyph-name="uni00B2" unicode="&#xb2;" horiz-adv-x="470" 
d="M356 525h44v-100l-100 -100h-230v34l30 36q13 15 27.5 33t28.5 34l-47 -24l-15 30q-11 24 -11 49q0 46 32 76q6 7 20 21l29.5 29.5l29.5 29.5t21 20q30 32 76 32q22 0 42 -8.5t35 -23.5t23.5 -34.5t8.5 -41.5l-1 -7q-2 -36 -25 -63zM375 617q0 35 -24.5 59t-59.5 24
t-59 -24t-24 -59q0 -22 9 -38l3 -7l45 22l-4 8q-3 6 -3 15q0 14 9.5 23.5t23.5 9.5t24 -9.5t10 -23.5q0 -12 -8 -22l-122 -145h180v50h-73l53 63q20 23 20 54z" />
    <glyph glyph-name="uni00B3" unicode="&#xb3;" horiz-adv-x="467" 
d="M397 725v-33l-50 -75q18 -15 28.5 -36.5t10.5 -47.5q0 -46 -32 -76q-6 -7 -20 -21t-29.5 -29t-29.5 -29l-21 -21q-30 -32 -76 -32q-33 0 -59.5 17.5t-39.5 45.5l-9 21l32 33h-25l55 83h-41v100l100 100h206zM372 700h-156v-50h63l-55 -83h54q14 0 23.5 -10t9.5 -24
t-9.5 -23.5t-23.5 -9.5q-11 0 -20 6.5t-12 17.5l-44 -25q10 -22 30 -35.5t46 -13.5q35 0 59 24t24 59q0 26 -13.5 46t-35.5 30z" />
    <glyph glyph-name="acute" unicode="&#xb4;" horiz-adv-x="616" 
d="M516 846l-100 -100l-287 -88l-29 96l100 100l286 88zM485 863l-15 48l-239 -74l15 -48z" />
    <glyph glyph-name="mu" unicode="&#xb5;" horiz-adv-x="1090" 
d="M920 725v-750l-100 -100h-150v453l-75 -109l-100 -100l-75 109v-253l-100 -100h-150v750l100 100h159l150 -218l81 118l100 100h160zM595 440l-179 260h-121v-700h100v554l200 -291l200 291v-554h100v700h-121z" />
    <glyph glyph-name="mu" unicode="&#x3bc;" horiz-adv-x="1090" 
d="M920 725v-750l-100 -100h-150v453l-75 -109l-100 -100l-75 109v-253l-100 -100h-150v750l100 100h159l150 -218l81 118l100 100h160zM595 440l-179 260h-121v-700h100v554l200 -291l200 291v-554h100v700h-121z" />
    <glyph glyph-name="paragraph" unicode="&#xb6;" horiz-adv-x="860" 
d="M730 725v-150l-50 -50v-550l-100 -100h-300v301q-42 5 -78.5 24t-63.5 49t-42.5 68.5t-15.5 82.5q0 47 17.5 87.5t48.5 71.5l100 100q31 31 71.5 48.5t87.5 17.5h325zM405 700q-42 0 -78.5 -16t-63.5 -43t-42.5 -63.5t-15.5 -77.5q0 -42 15.5 -78.5t42.5 -63.5
t63.5 -42.5t78.5 -15.5v-300h100v600h50v-600h100v600h50v100h-300z" />
    <glyph glyph-name="periodcentered" unicode="&#xb7;" horiz-adv-x="390" 
d="M198 197q-22 -22 -53 -22t-53 22t-22 53t22 53l100 100q22 22 53 22t53 -22t22 -53t-22 -53zM295 350q0 21 -14.5 35.5t-35.5 14.5t-35.5 -14.5t-14.5 -35.5t14.5 -35.5t35.5 -14.5t35.5 14.5t14.5 35.5z" />
    <glyph glyph-name="cedilla" unicode="&#xb8;" horiz-adv-x="425" 
d="M325 25v-150l-100 -100h-125v75l25 25v50l100 100h100zM250 -75h-25v-25h75v100h-50v-75z" />
    <glyph glyph-name="uni00B9" unicode="&#xb9;" horiz-adv-x="340" 
d="M270 425l-100 -100h-100v300l100 100h100v-300zM245 450v250h-50v-250h50z" />
    <glyph glyph-name="ordmasculine" unicode="&#xba;" horiz-adv-x="600" 
d="M356 369q-20 -20 -47.5 -32t-58.5 -12t-58.5 12t-47.5 32t-32 47.5t-12 58.5t12 58.5t32 47.5l100 100q20 20 47.5 32t58.5 12t58.5 -12t47.5 -32t32 -47.5t12 -58.5t-12 -58.5t-32 -47.5zM475 575q0 26 -10 48.5t-27 39.5t-39.5 27t-48.5 10t-48.5 -10t-39.5 -27
t-27 -39.5t-10 -48.5t10 -48.5t27 -39.5t39.5 -27t48.5 -10t48.5 10t39.5 27t27 39.5t10 48.5zM350 650q31 0 53 -22t22 -53t-22 -53t-53 -22t-53 22t-22 53t22 53t53 22z" />
    <glyph glyph-name="guillemotright" unicode="&#xbb;" horiz-adv-x="738" 
d="M678 350l-167 -240l-100 -100l-123 86l108 154l-7 11l-105 -151l-100 -100l-123 86l108 154l-108 154l100 100l123 86l78 -112l26 26l123 86zM196 497l103 -147l-103 -147l82 -58l143 205l-143 205zM423 497l103 -147l-103 -147l82 -58l143 205l-143 205z" />
    <glyph glyph-name="onequarter" unicode="&#xbc;" horiz-adv-x="1007" 
d="M359 425l-100 -100h-100v300l100 100h100v-300zM334 450v250h-50v-250h50zM867 674l-547 -723l-100 -100l-100 76l548 723l100 100zM315 -14l517 683l-59 46l-518 -684zM853 133h34v-100l-34 -33v-25l-100 -100h-100v58h-108l59 251l100 100l97 -22l-6 -29h58v-100z
M722 254l-45 -196h101v-58h50v58h34v50h-34v100h-50v-100h-38l31 135z" />
    <glyph glyph-name="onehalf" unicode="&#xbd;" horiz-adv-x="1005" 
d="M259 325h-100v300l100 100h100v-300zM334 700h-50v-250h50v250zM319 -49l-100 -100l-99 76l547 723l100 100l100 -76zM832 669l-60 46l-517 -684l59 -45zM841 75h44v-100l-100 -100h-230v34l30 36q13 15 27.5 33t28.5 34l-47 -24l-14 30q-12 22 -12 49q0 22 8.5 41.5
t23.5 34.5l21 21t29 29.5t29 29.5t21 20q32 32 76 32q22 0 42 -8.5t35 -23.5t23.5 -34.5t8.5 -41.5v-7q-3 -37 -26 -63zM860 167q0 35 -24.5 59t-59.5 24t-59 -24t-24 -59q0 -22 9 -38l4 -7l44 22l-3 7q-4 7 -4 16q0 14 9.5 23.5t23.5 9.5t24 -9.5t10 -23.5q0 -12 -8 -22
l-122 -145h180v50h-73l53 63q20 23 20 54z" />
    <glyph glyph-name="threequarters" unicode="&#xbe;" horiz-adv-x="1022" 
d="M448 725v-33l-50 -75q18 -15 28.5 -36.5t10.5 -47.5q0 -23 -9 -42.5t-23 -33.5l-100 -100q-15 -15 -34.5 -23.5t-42.5 -8.5q-33 0 -59 17.5t-39 45.5l-10 21l33 33h-25l55 83h-42v100l100 100h207zM422 700h-156v-50h63l-55 -83h54q14 0 24 -10t10 -24t-10 -23.5
t-24 -9.5q-11 0 -20 6.5t-12 17.5l-44 -25q11 -22 31 -35.5t45 -13.5q35 0 59.5 24t24.5 59q0 26 -14 46t-36 30zM335 -49l-100 -100l-100 76l548 723l100 100l100 -76zM847 669l-59 46l-518 -684l60 -45zM902 133v-100l-33 -33v-25l-101 -100h-100v58h-108l59 251l100 100
l98 -22l-7 -29h59v-100h33zM692 58h101v-58h50v58h34v50h-34v100h-50v-100h-38l31 135l-49 11z" />
    <glyph glyph-name="questiondown" unicode="&#xbf;" horiz-adv-x="703" 
d="M633 139q-17 -54 -58 -94q-6 -6 -20 -20.5t-29.5 -30l-30 -30l-20.5 -20.5q-32 -32 -75 -50.5t-93 -18.5q-49 0 -92 18.5t-75.5 51t-51 75.5t-18.5 92q0 50 19 93t51 75l92 93v52l50 50h-50v150l100 100h150v-150l-50 -50h50v-225l-100 -100h-61q5 -32 29 -53.5t57 -21.5
q8 0 12 1q10 10 21.5 21t22 21.5t18.5 19t13 13.5zM357 700v-100h100v100h-100zM407 -1q66 0 118 35t77 92l-92 40q-13 -29 -40.5 -48t-62.5 -19q-23 0 -43.5 9t-35.5 24.5t-24 36t-9 43.5t9 43.5t24 35.5t35.5 24t43.5 9h50v176h-100v-81q-35 -9 -64.5 -28t-51.5 -46.5
t-34 -61.5t-12 -71q0 -44 16.5 -82.5t45.5 -67.5t67.5 -46t82.5 -17z" />
    <glyph glyph-name="Agrave" unicode="&#xc0;" horiz-adv-x="1085" 
d="M1025 -25l-100 -100h-171l-68 125h-341l-14 -25l-100 -100h-171l433 792l23 23l-184 56l30 96l100 100l287 -88l-30 -96l-79 -79zM549 250l-34 62l-34 -62h68zM717 837l-239 74l-14 -48l239 -74zM869 0h114l-390 714l-391 -714h114l69 125h416zM439 225l154 281l153 -281
h-307z" />
    <glyph glyph-name="Aacute" unicode="&#xc1;" horiz-adv-x="1085" 
d="M1025 -25l-100 -100h-171l-68 125h-341l-14 -25l-100 -100h-171l433 792l46 45l-177 -54l-29 96l100 100l286 88l30 -96l-100 -100l-39 -12zM549 250l-34 62l-34 -62h68zM479 789l239 74l-15 48l-239 -74zM869 0h114l-390 714l-391 -714h114l69 125h416zM439 225l154 281
l153 -281h-307z" />
    <glyph glyph-name="Acircumflex" unicode="&#xc2;" horiz-adv-x="1085" 
d="M1025 -25l-100 -100h-171l-68 125h-341l-14 -25l-100 -100h-171l432 792l24 23l-24 8l-128 -40l-30 96l100 100l158 48l159 -48l-30 -96l-80 -80zM550 250l-34 62l-34 -62h68zM719 837l-127 39l-126 -39l14 -48l112 35l113 -35zM869 0h114l-391 714l-390 -714h114l68 125
h417zM439 225l153 281l154 -281h-307z" />
    <glyph glyph-name="Atilde" unicode="&#xc3;" horiz-adv-x="1085" 
d="M1025 -25l-100 -100h-171l-68 125h-341l-14 -25l-100 -100h-171l433 791l13 14q-9 3 -18.5 6.5t-18.5 8.5q-14 8 -28.5 9t-28.5 -4q-16 -5 -25 -13l-19 -16l-64 78l100 100l20 15q13 11 27.5 19t31.5 13q32 10 66.5 7t66.5 -20q14 -8 28.5 -9t28.5 4q12 3 26 13l18 16
l64 -78l-100 -100l-19 -16q-7 -5 -14.5 -9.5t-15.5 -9.5zM550 250l-34 62l-34 -62h68zM695 806q14 4 27 11t24 16l-32 39q-15 -14 -33 -18q-39 -13 -77 7q-27 14 -56.5 16.5t-57.5 -5.5q-27 -9 -51 -27l32 -39q14 11 34 18q18 6 38 4.5t38 -11.5q28 -15 57.5 -17t56.5 6z
M869 0h114l-390 714l-391 -714h114l69 125h416zM439 225l154 281l153 -281h-307z" />
    <glyph glyph-name="Adieresis" unicode="&#xc4;" horiz-adv-x="1085" 
d="M395 697q-22 -22 -52.5 -22t-53.5 22q-22 22 -22 53t22 53l100 100q23 22 53.5 22t52.5 -22q23 -22 23 -53t-23 -53zM1025 -25l-100 -100h-171l-68 125h-341l-14 -25l-100 -100h-171l432 791l76 76q-5 34 21 61l100 100q23 22 53.5 22t52.5 -22q23 -22 23 -53t-23 -53
l-100 -100q-21 -22 -53 -22zM549 250l-34 62l-34 -62h68zM492 850q0 20 -14.5 35t-35.5 15q-20 0 -35 -15t-15 -35q0 -21 15 -35.5t35 -14.5q21 0 35.5 14.5t14.5 35.5zM792 850q0 20 -14.5 35t-35.5 15q-20 0 -35 -15t-15 -35q0 -21 15 -35.5t35 -14.5q21 0 35.5 14.5
t14.5 35.5zM869 0h114l-391 714l-390 -714h114l68 125h416zM439 225l153 281l154 -281h-307z" />
    <glyph glyph-name="Aring" unicode="&#xc5;" horiz-adv-x="1085" 
d="M1024 -25l-100 -100h-171l-68 125h-341l-14 -25l-100 -100h-170l432 791l9 9q-22 -2 -42.5 5t-37.5 24q-15 15 -22 33.5t-7 37.5t7 37.5t22 33.5l21 21l29 29t29 28.5t21 21.5q15 15 33.5 22t37.5 7t37.5 -7t33.5 -22t22 -33.5t7 -37.5t-7 -37.5t-22 -33.5
q-9 -8 -25.5 -25t-33.5 -34zM548 250l-34 62l-34 -62h68zM667 875q0 31 -22 53t-53 22t-53 -22t-22 -53q0 -32 22 -53.5t53 -21.5t53 21.5t22 53.5zM592 900q11 0 18 -7t7 -18t-7 -18t-18 -7t-18 7t-7 18t7 18t18 7zM868 0h114l-390 714l-390 -714h114l68 125h416zM439 225
l153 281l153 -281h-306z" />
    <glyph glyph-name="AE" unicode="&#xc6;" horiz-adv-x="1348" 
d="M788 475v-125h300v-150l-75 -75h175v-150l-100 -100h-550v100h-207l-100 -100h-171l409 750l100 100h619v-150l-100 -100h-300zM538 225v130l-71 -130h71zM1163 600v100h-579l-382 -700h114l55 100h292v-100h500v100h-400v125h300v100h-300v275h400zM425 200l219 400h19
v-400h-238z" />
    <glyph glyph-name="Ccedilla" unicode="&#xc7;" horiz-adv-x="939" 
d="M750 235l119 -91l-15 -20q-8 -10 -16 -19.5t-17 -18.5q-6 -6 -20.5 -21t-31 -31t-30.5 -30l-18 -18q-50 -51 -116 -80v-31l-100 -100h-125v75l25 25v3q-69 9 -128.5 42t-103 82.5t-68.5 113t-25 134.5q0 78 29 146t80 119q6 6 20.5 20t30 30t30 30t20.5 20
q51 51 119 80.5t146 29.5q92 0 170 -40.5t129 -108.5l15 -20l-100 -100l-119 -91l-15 20q-31 42 -77.5 66t-102.5 24q-27 0 -52.5 -6.5t-48.5 -17.5q-11 -23 -17.5 -48.5t-6.5 -52.5q0 -47 17.5 -87.5t48.5 -71.5t71.5 -48.5t87.5 -17.5q56 0 102.5 24t77.5 66zM555 100
q-52 0 -97.5 19.5t-79.5 53.5t-53.5 79.5t-19.5 97.5t19.5 97.5t53.5 79.5t79.5 53.5t97.5 19.5q62 0 113.5 -27t86.5 -73l79 61q-48 63 -120.5 101t-158.5 38q-72 0 -136 -27.5t-111.5 -75t-75 -111.5t-27.5 -136q0 -69 25 -130.5t69 -108.5t103.5 -76t127.5 -34v-76h-25
v-25h75v101q78 5 143.5 42t110.5 96l-79 61q-35 -46 -86.5 -73t-113.5 -27z" />
    <glyph glyph-name="Egrave" unicode="&#xc8;" horiz-adv-x="980" 
d="M420 475v-125h300v-150l-75 -75h175v-150l-100 -100h-550v750l100 100h86l-69 21l29 96l100 100l287 -88l-29 -96l-34 -33h180v-150l-100 -100h-300zM672 837l-239 74l-15 -48l239 -74zM795 600v100h-500v-700h500v100h-400v125h300v100h-300v275h400z" />
    <glyph glyph-name="Eacute" unicode="&#xc9;" horiz-adv-x="980" 
d="M420 475v-125h300v-150l-75 -75h175v-150l-100 -100h-550v750l100 100h26l-9 29l100 100l287 88l29 -96l-100 -100l-69 -21h286v-150l-100 -100h-300zM433 789l239 74l-15 48l-239 -74zM795 600v100h-500v-700h500v100h-400v125h300v100h-300v275h400z" />
    <glyph glyph-name="Ecircumflex" unicode="&#xca;" horiz-adv-x="980" 
d="M420 475v-125h300v-150l-75 -75h175v-150l-100 -100h-550v750l100 100h26l-9 29l100 100l158 48l158 -48l-29 -96l-34 -33h180v-150l-100 -100h-300zM672 837l-127 39l-127 -39l15 -48l112 35l112 -35zM795 600v100h-500v-700h500v100h-400v125h300v100h-300v275h400z
" />
    <glyph glyph-name="Edieresis" unicode="&#xcb;" horiz-adv-x="980" 
d="M420 475v-125h300v-150l-75 -75h175v-150l-100 -100h-550v750l72 72q-22 22 -22 53t22 53l100 100q23 22 53.5 22t52.5 -22q23 -22 23 -53t-23 -53l-72 -72h149q-8 20 -3.5 41t20.5 37l100 100q23 22 53.5 22t52.5 -22q23 -22 23 -53t-23 -53l-72 -72h144v-150l-100 -100
h-300zM445 850q0 21 -14.5 35.5t-35.5 14.5q-20 0 -35 -14.5t-15 -35.5t15 -35.5t35 -14.5q21 0 35.5 14.5t14.5 35.5zM745 850q0 21 -14.5 35.5t-35.5 14.5q-20 0 -35 -14.5t-15 -35.5t15 -35.5t35 -14.5q21 0 35.5 14.5t14.5 35.5zM795 600v100h-500v-700h500v100h-400
v125h300v100h-300v275h400z" />
    <glyph glyph-name="Igrave" unicode="&#xcc;" 
d="M503 854l-29 -96l-54 -54v-729l-100 -100h-150v750l73 73l-156 48l29 96l100 100zM457 789l15 48l-239 74l-15 -48zM395 0v700h-100v-700h100z" />
    <glyph glyph-name="Iacute" unicode="&#xcd;" 
d="M403 746l-69 -21h86v-750l-100 -100h-150v750l72 72l-126 -39l-29 96l100 100l287 88l29 -96zM472 863l-15 48l-239 -74l15 -48zM395 0v700h-100v-700h100z" />
    <glyph glyph-name="Icircumflex" unicode="&#xce;" 
d="M503 854l-30 -96l-53 -54v-729l-100 -100h-150v750l72 72l-126 -39l-29 96l99 100l159 48zM345 876l-127 -39l15 -48l112 35l112 -35l15 48zM395 0v700h-100v-700h100z" />
    <glyph glyph-name="Idieresis" unicode="&#xcf;" 
d="M248 903q22 -22 22 -53t-22 -53l-100 -100q-22 -22 -53 -22t-53 22t-22 53t22 53l100 100q22 22 53 22t53 -22zM548 903q22 -22 22 -53t-22 -53l-100 -100q-11 -11 -28 -18v-704l-100 -100h-150v750l100 100h54q-7 20 -2.5 41t20.5 37l100 100q22 22 53 22t53 -22z
M245 850q0 21 -14.5 35.5t-35.5 14.5t-35.5 -14.5t-14.5 -35.5t14.5 -35.5t35.5 -14.5t35.5 14.5t14.5 35.5zM545 850q0 21 -14.5 35.5t-35.5 14.5t-35.5 -14.5t-14.5 -35.5t14.5 -35.5t35.5 -14.5t35.5 14.5t14.5 35.5zM395 700h-100v-700h100v700z" />
    <glyph glyph-name="Eth" unicode="&#xd0;" horiz-adv-x="1050" 
d="M860 85q-6 -6 -20 -20.5t-30 -30t-30 -29.5l-20 -20q-51 -51 -119 -80.5t-146 -29.5h-275v200h-100v150l100 100v300l100 100h275q78 0 146 -29.5t119 -80.5t80.5 -119t29.5 -146t-29.5 -146t-80.5 -119zM595 125q27 0 52.5 6.5t48.5 17.5q11 23 17.5 48.5t6.5 52.5
q0 46 -17.5 87t-48.5 72t-72 48.5t-87 17.5h-25v-150h100v-150l-50 -50h75zM345 700v-400h-100v-100h100v-200h250q72 0 136 27.5t111.5 75t75 111.5t27.5 136t-27.5 136t-75 111.5t-111.5 75t-136 27.5h-250zM595 100h-150v100h100v100h-100v300h150q52 0 97.5 -19.5
t79.5 -53.5t53.5 -79.5t19.5 -97.5t-19.5 -97.5t-53.5 -79.5t-79.5 -53.5t-97.5 -19.5z" />
    <glyph glyph-name="Ntilde" unicode="&#xd1;" horiz-adv-x="1090" 
d="M783 829l-100 -100l-19 -15q-25 -21 -59 -32q-32 -10 -66.5 -7t-66.5 20q-28 15 -58 5q-11 -2 -25 -13l-19 -16l-63 78l100 100l19 16q29 22 59 31q32 10 66.5 7t66.5 -20q28 -15 58 -5q14 5 25 13l19 16zM698 806q28 9 50 27l-31 39q-14 -11 -34 -18q-40 -13 -76 7
q-28 15 -57.5 17t-57.5 -6q-14 -4 -26.5 -11t-23.5 -16l31 -39q15 13 34 18q40 13 76 -7q28 -14 57.5 -16.5t57.5 5.5zM920 725v-750l-100 -100h-41l-359 343v-243l-100 -100h-150v750l100 100h40l360 -343v243l100 100h150zM795 700v-472l-495 472h-5v-700h100v472
l494 -472h6v700h-100z" />
    <glyph glyph-name="Ograve" unicode="&#xd2;" horiz-adv-x="990" 
d="M631 715q62 -15 115 -48.5t91.5 -81.5t60.5 -108t22 -127q0 -78 -29.5 -146t-80.5 -119l-20 -20t-29.5 -30t-30 -30t-20.5 -20q-51 -51 -119 -80.5t-146 -29.5t-146 29.5t-119 80.5t-80.5 119t-29.5 146t29.5 146.5t81.5 119.5l20 20t29.5 30t30 30t20.5 20q60 60 142 89
l-136 41l29 96l100 100l287 -88l-29 -96zM646 149q11 23 17.5 48.5t6.5 52.5q0 46 -17.5 87t-48.5 72t-72 48.5t-87 17.5q-27 0 -52.5 -6.5t-48.5 -17.5q-11 -23 -17.5 -48.5t-6.5 -52.5q0 -47 17.5 -87.5t48.5 -71.5t71.5 -48.5t87.5 -17.5q27 0 52.5 6.5t48.5 17.5z
M672 837l-239 74l-15 -48l239 -74zM895 350q0 72 -27.5 136t-75 111.5t-111.5 75t-136 27.5t-136 -27.5t-111.5 -75t-75 -111.5t-27.5 -136t27.5 -136t75 -111.5t111.5 -75t136 -27.5t136 27.5t111.5 75t75 111.5t27.5 136zM545 600q52 0 97.5 -19.5t79.5 -53.5t53.5 -79.5
t19.5 -97.5t-19.5 -97.5t-53.5 -79.5t-79.5 -53.5t-97.5 -19.5t-97.5 19.5t-79.5 53.5t-53.5 79.5t-19.5 97.5t19.5 97.5t53.5 79.5t79.5 53.5t97.5 19.5z" />
    <glyph glyph-name="Oacute" unicode="&#xd3;" horiz-adv-x="990" 
d="M545 725q78 0 146 -29.5t119 -80.5t80.5 -119t29.5 -146t-29.5 -146t-80.5 -119l-20 -20t-29.5 -30t-30 -30t-20.5 -20q-51 -51 -119 -80.5t-146 -29.5t-146 29.5t-119 80.5t-80.5 119t-29.5 146t29.5 146.5t81.5 119.5l20 20t29.5 30t30 30t20.5 20q28 28 63 51l-28 -9
l-29 96l100 100l287 88l29 -96l-100 -100l-70 -21h12zM646 149q11 23 17.5 48.5t6.5 52.5q0 46 -17.5 87t-48.5 72t-72 48.5t-87 17.5q-27 0 -52.5 -6.5t-48.5 -17.5q-11 -23 -17.5 -48.5t-6.5 -52.5q0 -47 17.5 -87.5t48.5 -71.5t71.5 -48.5t87.5 -17.5q27 0 52.5 6.5
t48.5 17.5zM672 863l-15 48l-239 -74l15 -48zM895 350q0 72 -27.5 136t-75 111.5t-111.5 75t-136 27.5t-136 -27.5t-111.5 -75t-75 -111.5t-27.5 -136t27.5 -136t75 -111.5t111.5 -75t136 -27.5t136 27.5t111.5 75t75 111.5t27.5 136zM545 600q52 0 97.5 -19.5t79.5 -53.5
t53.5 -79.5t19.5 -97.5t-19.5 -97.5t-53.5 -79.5t-79.5 -53.5t-97.5 -19.5t-97.5 19.5t-79.5 53.5t-53.5 79.5t-19.5 97.5t19.5 97.5t53.5 79.5t79.5 53.5t97.5 19.5z" />
    <glyph glyph-name="Ocircumflex" unicode="&#xd4;" horiz-adv-x="990" 
d="M631 715q62 -15 115 -48.5t91.5 -81.5t60.5 -108t22 -127q0 -78 -29.5 -146t-80.5 -119l-20 -20t-29.5 -30t-30 -30t-20.5 -20q-51 -51 -119 -80.5t-146 -29.5t-146 29.5t-119 80.5t-80.5 119t-29.5 146t29.5 146.5t81.5 119.5l20 20t29.5 30t30 30t20.5 20q28 28 63 51
l-28 -9l-29 96l100 100l158 48l158 -48l-29 -96zM646 149q11 23 17.5 48.5t6.5 52.5q0 46 -17.5 87t-48.5 72t-72 48.5t-87 17.5q-27 0 -52.5 -6.5t-48.5 -17.5q-11 -23 -17.5 -48.5t-6.5 -52.5q0 -47 17.5 -87.5t48.5 -71.5t71.5 -48.5t87.5 -17.5q27 0 52.5 6.5t48.5 17.5
zM545 876l-127 -39l15 -48l112 35l112 -35l15 48zM895 350q0 72 -27.5 136t-75 111.5t-111.5 75t-136 27.5t-136 -27.5t-111.5 -75t-75 -111.5t-27.5 -136t27.5 -136t75 -111.5t111.5 -75t136 -27.5t136 27.5t111.5 75t75 111.5t27.5 136zM545 600q52 0 97.5 -19.5
t79.5 -53.5t53.5 -79.5t19.5 -97.5t-19.5 -97.5t-53.5 -79.5t-79.5 -53.5t-97.5 -19.5t-97.5 19.5t-79.5 53.5t-53.5 79.5t-19.5 97.5t19.5 97.5t53.5 79.5t79.5 53.5t97.5 19.5z" />
    <glyph glyph-name="Otilde" unicode="&#xd5;" horiz-adv-x="990" 
d="M920 350q0 -78 -29.5 -146t-80.5 -119l-20 -20t-29.5 -30t-30 -30t-20.5 -20q-51 -51 -119 -80.5t-146 -29.5t-146 29.5t-119 80.5t-80.5 119t-29.5 146t29.5 146.5t81.5 119.5l20 20t29.5 30t30 30t20.5 20q55 55 129 84q-23 8 -46 0q-11 -2 -25 -13l-19 -16l-63 78
l99 100l18 15q14 11 29.5 19t31.5 13q32 10 66.5 7t66.5 -20q27 -14 56 -5q14 3 27 13l18 16l64 -78l-100 -100l-14 -11q64 -13 119.5 -46.5t95.5 -82.5t63 -110t23 -129zM545 700q-72 0 -136 -27.5t-111.5 -75t-75 -111.5t-27.5 -136t27.5 -136t75 -111.5t111.5 -75
t136 -27.5t136 27.5t111.5 75t75 111.5t27.5 136t-27.5 136t-75 111.5t-111.5 75t-136 27.5zM795 350q0 -52 -19.5 -97.5t-53.5 -79.5t-79.5 -53.5t-97.5 -19.5t-97.5 19.5t-79.5 53.5t-53.5 79.5t-19.5 97.5t19.5 97.5t53.5 79.5t79.5 53.5t97.5 19.5t97.5 -19.5
t79.5 -53.5t53.5 -79.5t19.5 -97.5zM670 250q0 46 -17.5 87t-48.5 72t-72 48.5t-87 17.5q-27 0 -52.5 -6.5t-48.5 -17.5q-11 -23 -17.5 -48.5t-6.5 -52.5q0 -47 17.5 -87.5t48.5 -71.5t71.5 -48.5t87.5 -17.5q27 0 52.5 6.5t48.5 17.5q11 23 17.5 48.5t6.5 52.5zM667 872
q-8 -6 -16.5 -11t-17.5 -7q-40 -13 -76 7q-28 15 -57.5 17t-57.5 -6q-28 -9 -50 -27l31 -39q17 14 34 18q40 13 76 -7q28 -15 57.5 -17t56.5 6q28 9 51 27z" />
    <glyph glyph-name="Odieresis" unicode="&#xd6;" horiz-adv-x="990" 
d="M348 697q-22 -22 -53 -22t-53 22t-22 53t22 53l100 100q22 22 53 22t53 -22t22 -53t-22 -53zM659 707q57 -18 104.5 -52.5t82.5 -81.5t54.5 -103.5t19.5 -119.5q0 -78 -29.5 -146t-80.5 -119l-20 -20t-29.5 -30t-30 -30t-20.5 -20q-51 -51 -119 -80.5t-146 -29.5
t-146 29.5t-119 80.5t-80.5 119t-29.5 146t29.5 146.5t81.5 119.5l20 20t29.5 30t30 30t20.5 20q48 48 110 76t133 32q-7 20 -2.5 41.5t20.5 37.5l100 100q22 22 53 22t53 -22t22 -53t-22 -53zM646 149q11 23 17.5 48.5t6.5 52.5q0 46 -17.5 87t-48.5 72t-72 48.5t-87 17.5
q-27 0 -52.5 -6.5t-48.5 -17.5q-11 -23 -17.5 -48.5t-6.5 -52.5q0 -47 17.5 -87.5t48.5 -71.5t71.5 -48.5t87.5 -17.5q27 0 52.5 6.5t48.5 17.5zM445 850q0 21 -14.5 35.5t-35.5 14.5t-35.5 -14.5t-14.5 -35.5t14.5 -35.5t35.5 -14.5t35.5 14.5t14.5 35.5zM745 850
q0 21 -14.5 35.5t-35.5 14.5t-35.5 -14.5t-14.5 -35.5t14.5 -35.5t35.5 -14.5t35.5 14.5t14.5 35.5zM895 350q0 72 -27.5 136t-75 111.5t-111.5 75t-136 27.5t-136 -27.5t-111.5 -75t-75 -111.5t-27.5 -136t27.5 -136t75 -111.5t111.5 -75t136 -27.5t136 27.5t111.5 75
t75 111.5t27.5 136zM545 600q52 0 97.5 -19.5t79.5 -53.5t53.5 -79.5t19.5 -97.5t-19.5 -97.5t-53.5 -79.5t-79.5 -53.5t-97.5 -19.5t-97.5 19.5t-79.5 53.5t-53.5 79.5t-19.5 97.5t19.5 97.5t53.5 79.5t79.5 53.5t97.5 19.5z" />
    <glyph glyph-name="multiply" unicode="&#xd7;" horiz-adv-x="817" 
d="M717 491l-141 -141l141 -141l-228 -229l-142 141l-141 -141l-106 106l141 141l-141 142l229 228l141 -141l141 141zM470 421l-141 141l-71 -71l141 -141l-141 -141l71 -71l141 141l141 -141l71 71l-141 141l141 141l-71 71z" />
    <glyph glyph-name="Oslash" unicode="&#xd8;" horiz-adv-x="1038" 
d="M882 557q29 -45 45.5 -97.5t16.5 -109.5q0 -78 -29.5 -146t-80.5 -119q-6 -6 -20 -20.5t-30 -30t-30 -29.5l-20 -20q-51 -51 -119 -80.5t-146 -29.5q-57 0 -109.5 16.5t-97.5 45.5l-76 -76l-106 106l76 76q-29 45 -45.5 97.5t-16.5 109.5q0 78 29.5 146t80.5 119l20 20
t29.5 30t30 30t20.5 20q51 51 119 80.5t146 29.5q57 0 109.5 -16.5t97.5 -45.5l76 76l106 -106zM469 475q-27 0 -52.5 -6.5t-48.5 -17.5q-11 -23 -17.5 -48.5t-6.5 -52.5q0 -51 22 -97l200 200q-46 22 -97 22zM569 125q27 0 52.5 6.5t48.5 17.5q11 23 17.5 48.5t6.5 52.5
q0 51 -22 97l-200 -200q46 -22 97 -22zM852 704l-73 -74q-45 33 -97.5 51.5t-112.5 18.5q-72 0 -136 -27.5t-111.5 -75t-75 -111.5t-27.5 -136q0 -60 18.5 -112.5t51.5 -97.5l-74 -73l71 -71l73 74q45 -33 97.5 -51.5t112.5 -18.5q72 0 136 27.5t111.5 75t75 111.5t27.5 136
q0 60 -18.5 112.5t-51.5 97.5l74 73zM319 350q0 52 19.5 97.5t53.5 79.5t79.5 53.5t97.5 19.5q38 0 73 -10.5t65 -30.5l-347 -347q-20 30 -30.5 65t-10.5 73zM819 350q0 -52 -19.5 -97.5t-53.5 -79.5t-79.5 -53.5t-97.5 -19.5q-38 0 -73 10.5t-65 30.5l347 347
q20 -30 30.5 -65t10.5 -73z" />
    <glyph glyph-name="Ugrave" unicode="&#xd9;" horiz-adv-x="1050" 
d="M900 725v-425q0 -68 -25 -126.5t-70 -103.5q-6 -6 -20.5 -20t-30 -30t-29.5 -30l-20 -20q-45 -45 -103.5 -70t-126.5 -25t-127 25.5t-103 69.5t-69.5 103t-25.5 127v425l100 100h136l-69 21l29 96l100 100l287 -88l-29 -96l-100 -100l-204 63v-421q0 -36 13.5 -68
t37.5 -56t56 -37.5t68 -13.5q34 0 63 12q12 28 12 63v425l100 100h150zM702 837l-239 74l-15 -48l239 -74zM875 700h-100v-400q0 -42 -16 -78.5t-43 -63.5t-63.5 -42.5t-77.5 -15.5q-42 0 -78.5 15.5t-63.5 42.5t-42.5 63.5t-15.5 78.5v400h-100v-400q0 -62 23.5 -117
t64 -95.5t95.5 -64t117 -23.5t117 23.5t95.5 64t64 95.5t23.5 117v400z" />
    <glyph glyph-name="Uacute" unicode="&#xda;" horiz-adv-x="1050" 
d="M900 725v-425q0 -68 -25 -126.5t-70 -103.5q-6 -6 -20.5 -20t-30 -30t-29.5 -30l-20 -20q-45 -45 -103.5 -70t-126.5 -25t-127 25.5t-103 69.5t-69.5 103t-25.5 127v425l100 100h76l-9 29l100 100l287 88l29 -96l-100 -100l-233 -71v-375q0 -36 13.5 -68t37.5 -56
t56 -37.5t68 -13.5q34 0 63 12q12 28 12 63v425l100 100h150zM702 863l-15 48l-239 -74l15 -48zM875 700h-100v-400q0 -42 -16 -78.5t-43 -63.5t-63.5 -42.5t-77.5 -15.5q-42 0 -78.5 15.5t-63.5 42.5t-42.5 63.5t-15.5 78.5v400h-100v-400q0 -62 23.5 -117t64 -95.5
t95.5 -64t117 -23.5t117 23.5t95.5 64t64 95.5t23.5 117v400z" />
    <glyph glyph-name="Ucircumflex" unicode="&#xdb;" horiz-adv-x="1050" 
d="M900 725v-425q0 -68 -25 -126.5t-70 -103.5q-6 -6 -20.5 -20t-30 -30t-29.5 -30l-20 -20q-45 -45 -103.5 -70t-126.5 -25t-127 25.5t-103 69.5t-69.5 103t-25.5 127v425l100 100h76l-9 29l100 100l158 48l158 -48l-30 -96l-99 -100l-129 40l-75 -23v-375q0 -36 13.5 -68
t37.5 -56t56 -37.5t68 -13.5q34 0 63 12q12 28 12 63v425l100 100h150zM575 876l-127 -39l15 -48l112 35l112 -35l15 48zM875 700h-100v-400q0 -42 -16 -78.5t-43 -63.5t-63.5 -42.5t-77.5 -15.5q-42 0 -78.5 15.5t-63.5 42.5t-42.5 63.5t-15.5 78.5v400h-100v-400
q0 -62 23.5 -117t64 -95.5t95.5 -64t117 -23.5t117 23.5t95.5 64t64 95.5t23.5 117v400z" />
    <glyph glyph-name="Udieresis" unicode="&#xdc;" horiz-adv-x="1050" 
d="M678 697q-22 -22 -53 -22t-53 22t-22 53t22 53l100 100q22 22 53 22t53 -22t22 -53t-22 -53zM900 725v-425q0 -68 -25 -126.5t-70 -103.5q-6 -6 -20.5 -20t-30 -30t-29.5 -30l-20 -20q-45 -45 -103.5 -70t-126.5 -25t-127 25.5t-103 69.5t-69.5 103t-25.5 127v425
l100 100h4q-7 20 -2.5 41t20.5 37l100 100q22 22 53 22t53 -22t22 -53t-22 -53l-78 -78v-419q0 -36 13.5 -68t37.5 -56t56 -37.5t68 -13.5q34 0 63 12q12 28 12 63v425l100 100h150zM475 850q0 21 -14.5 35.5t-35.5 14.5t-35.5 -14.5t-14.5 -35.5t14.5 -35.5t35.5 -14.5
t35.5 14.5t14.5 35.5zM775 850q0 21 -14.5 35.5t-35.5 14.5t-35.5 -14.5t-14.5 -35.5t14.5 -35.5t35.5 -14.5t35.5 14.5t14.5 35.5zM875 700h-100v-400q0 -42 -16 -78.5t-43 -63.5t-63.5 -42.5t-77.5 -15.5q-42 0 -78.5 15.5t-63.5 42.5t-42.5 63.5t-15.5 78.5v400h-100
v-400q0 -62 23.5 -117t64 -95.5t95.5 -64t117 -23.5t117 23.5t95.5 64t64 95.5t23.5 117v400z" />
    <glyph glyph-name="Yacute" unicode="&#xdd;" horiz-adv-x="893" 
d="M696 725h177l-302 -481v-269l-100 -100h-150v269l-301 481l100 100h127l-9 29l100 100l287 88l29 -96l-100 -100l-227 -70l151 -239l118 188zM623 863l-15 48l-239 -74l15 -48zM710 700l-214 -340l-213 340h-118l281 -449v-251h100v251l282 449h-118z" />
    <glyph glyph-name="Thorn" unicode="&#xde;" horiz-adv-x="930" 
d="M739 156q-6 -6 -20 -20.5t-29.5 -30l-30 -30l-20.5 -20.5q-37 -37 -87 -58.5t-107 -21.5h-25l-100 -100h-150v750l100 100h150v-100h125q57 0 107 -21.5t87.5 -59t59 -87.5t21.5 -107t-21.5 -107t-59.5 -87zM545 225q6 0 11.5 0.5t11.5 1.5q1 5 1.5 11t0.5 12
q0 26 -10 48.5t-27 39.5t-39.5 27t-48.5 10h-25v-150h125zM395 600v100h-100v-700h100v100h150q52 0 97.5 19.5t79.5 53.5t53.5 79.5t19.5 97.5t-19.5 97.5t-53.5 79.5t-79.5 53.5t-97.5 19.5h-150zM545 200h-150v300h150q31 0 58.5 -12t47.5 -32t32 -47.5t12 -58.5
t-12 -58.5t-32 -47.5t-47.5 -32t-58.5 -12z" />
    <glyph glyph-name="germandbls" unicode="&#xdf;" horiz-adv-x="890" 
d="M720 -25l-100 -100h-150v101q0 31 -22 53q-8 8 -15 16.5t-13 17.5v-88l-100 -100h-150v525q0 47 17.5 87.5t48.5 71.5l100 100q31 31 71.5 48.5t87.5 17.5q46 0 87 -17.5t72 -48.5t48.5 -72t17.5 -87q0 -47 -17.5 -87.5t-48.5 -71.5q-22 -22 -22 -53t22 -53
q31 -31 48.5 -71.5t17.5 -87.5v-101zM448 347q22 20 22 53q0 25 -14 44t-36 27v-158q12 18 28 34zM636 217q-15 15 -22 33t-7 37.5t7 38t22 33.5q28 27 43.5 63t15.5 78q0 41 -16 77.5t-43 63.5t-63.5 43t-77.5 16q-42 0 -78.5 -16t-63.5 -43t-42.5 -63.5t-15.5 -77.5v-500
h100v500q0 42 29 71t71 29t71 -29t29 -71t-29 -71t-44 -66t-15 -75t15 -75t44 -67q14 -14 21.5 -32.5t7.5 -37.5v-76h100v76q0 38 -15 75t-44 66z" />
    <glyph glyph-name="agrave" unicode="&#xe0;" horiz-adv-x="1085" 
d="M1025 -25l-100 -100h-171l-68 125h-341l-14 -25l-100 -100h-171l433 792l23 23l-184 56l30 96l100 100l287 -88l-30 -96l-79 -79zM549 250l-34 62l-34 -62h68zM717 837l-239 74l-14 -48l239 -74zM869 0h114l-390 714l-391 -714h114l69 125h416zM439 225l154 281l153 -281
h-307z" />
    <glyph glyph-name="aacute" unicode="&#xe1;" horiz-adv-x="1085" 
d="M1025 -25l-100 -100h-171l-68 125h-341l-14 -25l-100 -100h-171l433 792l46 45l-177 -54l-29 96l100 100l286 88l30 -96l-100 -100l-39 -12zM549 250l-34 62l-34 -62h68zM479 789l239 74l-15 48l-239 -74zM869 0h114l-390 714l-391 -714h114l69 125h416zM439 225l154 281
l153 -281h-307z" />
    <glyph glyph-name="acircumflex" unicode="&#xe2;" horiz-adv-x="1085" 
d="M1025 -25l-100 -100h-171l-68 125h-341l-14 -25l-100 -100h-171l432 792l24 23l-24 8l-128 -40l-30 96l100 100l158 48l159 -48l-30 -96l-80 -80zM549 250l-34 62l-34 -62h68zM719 837l-127 39l-126 -39l14 -48l112 35l113 -35zM869 0h114l-391 714l-390 -714h114l68 125
h417zM439 225l153 281l154 -281h-307z" />
    <glyph glyph-name="atilde" unicode="&#xe3;" horiz-adv-x="1085" 
d="M1025 -25l-100 -100h-171l-68 125h-341l-14 -25l-100 -100h-171l433 791l13 14q-9 3 -18.5 6.5t-18.5 8.5q-14 8 -28.5 9t-28.5 -4q-16 -5 -25 -13l-19 -16l-64 78l100 100l20 15q13 11 27.5 19t31.5 13q32 10 66.5 7t66.5 -20q14 -8 28.5 -9t28.5 4q12 3 26 13l18 16
l64 -78l-100 -100l-19 -16q-7 -5 -14.5 -9.5t-15.5 -9.5zM549 250l-34 62l-34 -62h68zM695 806q14 4 27 11t24 16l-32 39q-15 -14 -33 -18q-39 -13 -77 7q-27 14 -56.5 16.5t-57.5 -5.5q-27 -9 -51 -27l32 -39q14 11 34 18q18 6 38 4.5t38 -11.5q28 -15 57.5 -17t56.5 6z
M869 0h114l-390 714l-391 -714h114l69 125h416zM439 225l154 281l153 -281h-307z" />
    <glyph glyph-name="adieresis" unicode="&#xe4;" horiz-adv-x="1085" 
d="M395 697q-22 -22 -52.5 -22t-53.5 22q-22 22 -22 53t22 53l100 100q23 22 53.5 22t52.5 -22q23 -22 23 -53t-23 -53zM1025 -25l-100 -100h-171l-68 125h-341l-14 -25l-100 -100h-171l432 791l76 76q-5 34 21 61l100 100q23 22 53.5 22t52.5 -22q23 -22 23 -53t-23 -53
l-100 -100q-21 -22 -53 -22zM549 250l-34 62l-34 -62h68zM492 850q0 20 -14.5 35t-35.5 15q-20 0 -35 -15t-15 -35q0 -21 15 -35.5t35 -14.5q21 0 35.5 14.5t14.5 35.5zM792 850q0 20 -14.5 35t-35.5 15q-20 0 -35 -15t-15 -35q0 -21 15 -35.5t35 -14.5q21 0 35.5 14.5
t14.5 35.5zM869 0h114l-391 714l-390 -714h114l68 125h416zM439 225l153 281l154 -281h-307z" />
    <glyph glyph-name="aring" unicode="&#xe5;" horiz-adv-x="1085" 
d="M1024 -25l-100 -100h-171l-68 125h-341l-14 -25l-100 -100h-170l432 791l9 9q-22 -2 -42.5 5t-37.5 24q-15 15 -22 33.5t-7 37.5t7 37.5t22 33.5l21 21l29 29t29 28.5t21 21.5q15 15 33.5 22t37.5 7t37.5 -7t33.5 -22t22 -33.5t7 -37.5t-7 -37.5t-22 -33.5
q-9 -8 -25.5 -25t-33.5 -34zM549 250l-34 62l-34 -62h68zM667 875q0 31 -22 53t-53 22t-53 -22t-22 -53q0 -32 22 -53.5t53 -21.5t53 21.5t22 53.5zM592 900q11 0 18 -7t7 -18t-7 -18t-18 -7t-18 7t-7 18t7 18t18 7zM868 0h114l-390 714l-390 -714h114l68 125h416zM439 225
l153 281l153 -281h-306z" />
    <glyph glyph-name="ae" unicode="&#xe6;" horiz-adv-x="1348" 
d="M788 475v-125h300v-150l-75 -75h175v-150l-100 -100h-550v100h-207l-100 -100h-171l409 750l100 100h619v-150l-100 -100h-300zM538 225v130l-71 -130h71zM1163 600v100h-579l-382 -700h114l55 100h292v-100h500v100h-400v125h300v100h-300v275h400zM425 200l219 400h19
v-400h-238z" />
    <glyph glyph-name="ccedilla" unicode="&#xe7;" horiz-adv-x="939" 
d="M750 235l119 -91l-15 -20q-8 -10 -16 -19.5t-17 -18.5q-6 -6 -20.5 -21t-31 -31t-30.5 -30l-18 -18q-50 -51 -116 -80v-31l-100 -100h-125v75l25 25v3q-69 9 -128.5 42t-103 82.5t-68.5 113t-25 134.5q0 78 29 146t80 119q6 6 20.5 20t30 30t30 30t20.5 20
q51 51 119 80.5t146 29.5q92 0 170 -40.5t129 -108.5l15 -20l-100 -100l-119 -91l-15 20q-31 42 -77.5 66t-102.5 24q-27 0 -52.5 -6.5t-48.5 -17.5q-11 -23 -17.5 -48.5t-6.5 -52.5q0 -47 17.5 -87.5t48.5 -71.5t71.5 -48.5t87.5 -17.5q56 0 102.5 24t77.5 66zM555 100
q-52 0 -97.5 19.5t-79.5 53.5t-53.5 79.5t-19.5 97.5t19.5 97.5t53.5 79.5t79.5 53.5t97.5 19.5q62 0 113.5 -27t86.5 -73l79 61q-48 63 -120.5 101t-158.5 38q-72 0 -136 -27.5t-111.5 -75t-75 -111.5t-27.5 -136q0 -69 25 -130.5t69 -108.5t103.5 -76t127.5 -34v-76h-25
v-25h75v101q78 5 143.5 42t110.5 96l-79 61q-35 -46 -86.5 -73t-113.5 -27z" />
    <glyph glyph-name="egrave" unicode="&#xe8;" horiz-adv-x="980" 
d="M420 475v-125h300v-150l-75 -75h175v-150l-100 -100h-550v750l100 100h86l-69 21l29 96l100 100l287 -88l-29 -96l-34 -33h180v-150l-100 -100h-300zM672 837l-239 74l-15 -48l239 -74zM795 600v100h-500v-700h500v100h-400v125h300v100h-300v275h400z" />
    <glyph glyph-name="eacute" unicode="&#xe9;" horiz-adv-x="980" 
d="M420 475v-125h300v-150l-75 -75h175v-150l-100 -100h-550v750l100 100h26l-9 29l100 100l287 88l29 -96l-100 -100l-69 -21h286v-150l-100 -100h-300zM433 789l239 74l-15 48l-239 -74zM795 600v100h-500v-700h500v100h-400v125h300v100h-300v275h400z" />
    <glyph glyph-name="ecircumflex" unicode="&#xea;" horiz-adv-x="980" 
d="M420 475v-125h300v-150l-75 -75h175v-150l-100 -100h-550v750l100 100h26l-9 29l100 100l158 48l158 -48l-29 -96l-34 -33h180v-150l-100 -100h-300zM672 837l-127 39l-127 -39l15 -48l112 35l112 -35zM795 600v100h-500v-700h500v100h-400v125h300v100h-300v275h400z
" />
    <glyph glyph-name="edieresis" unicode="&#xeb;" horiz-adv-x="980" 
d="M420 475v-125h300v-150l-75 -75h175v-150l-100 -100h-550v750l72 72q-22 22 -22 53t22 53l100 100q23 22 53.5 22t52.5 -22q23 -22 23 -53t-23 -53l-72 -72h149q-8 20 -3.5 41t20.5 37l100 100q23 22 53.5 22t52.5 -22q23 -22 23 -53t-23 -53l-72 -72h144v-150l-100 -100
h-300zM445 850q0 21 -14.5 35.5t-35.5 14.5q-20 0 -35 -14.5t-15 -35.5t15 -35.5t35 -14.5q21 0 35.5 14.5t14.5 35.5zM745 850q0 21 -14.5 35.5t-35.5 14.5q-20 0 -35 -14.5t-15 -35.5t15 -35.5t35 -14.5q21 0 35.5 14.5t14.5 35.5zM795 600v100h-500v-700h500v100h-400
v125h300v100h-300v275h400z" />
    <glyph glyph-name="igrave" unicode="&#xec;" horiz-adv-x="565" 
d="M474 758l-54 -54v-729l-100 -100h-150v750l73 73l-156 48l29 96l100 100l287 -88zM472 837l-239 74l-15 -48l239 -74zM395 700h-100v-700h100v700z" />
    <glyph glyph-name="iacute" unicode="&#xed;" 
d="M403 746l-69 -21h86v-750l-100 -100h-150v750l72 72l-126 -39l-29 96l100 100l287 88l29 -96zM472 863l-15 48l-239 -74l15 -48zM395 0v700h-100v-700h100z" />
    <glyph glyph-name="icircumflex" unicode="&#xee;" 
d="M503 854l-30 -96l-53 -54v-729l-100 -100h-150v750l72 72l-126 -39l-29 96l99 100l159 48zM345 876l-127 -39l15 -48l112 35l112 -35l15 48zM395 0v700h-100v-700h100z" />
    <glyph glyph-name="idieresis" unicode="&#xef;" 
d="M248 903q22 -22 22 -53t-22 -53l-100 -100q-22 -22 -53 -22t-53 22t-22 53t22 53l100 100q22 22 53 22t53 -22zM548 903q22 -22 22 -53t-22 -53l-100 -100q-11 -11 -28 -18v-704l-100 -100h-150v750l100 100h54q-7 20 -2.5 41t20.5 37l100 100q22 22 53 22t53 -22z
M245 850q0 21 -14.5 35.5t-35.5 14.5t-35.5 -14.5t-14.5 -35.5t14.5 -35.5t35.5 -14.5t35.5 14.5t14.5 35.5zM545 850q0 21 -14.5 35.5t-35.5 14.5t-35.5 -14.5t-14.5 -35.5t14.5 -35.5t35.5 -14.5t35.5 14.5t14.5 35.5zM395 700h-100v-700h100v700z" />
    <glyph glyph-name="eth" unicode="&#xf0;" horiz-adv-x="1050" 
d="M860 85q-6 -6 -20 -20.5t-30 -30t-30 -29.5l-20 -20q-51 -51 -119 -80.5t-146 -29.5h-275v200h-100v150l100 100v300l100 100h275q78 0 146 -29.5t119 -80.5t80.5 -119t29.5 -146t-29.5 -146t-80.5 -119zM595 125q27 0 52.5 6.5t48.5 17.5q11 23 17.5 48.5t6.5 52.5
q0 46 -17.5 87t-48.5 72t-72 48.5t-87 17.5h-25v-150h100v-150l-50 -50h75zM345 700v-400h-100v-100h100v-200h250q72 0 136 27.5t111.5 75t75 111.5t27.5 136t-27.5 136t-75 111.5t-111.5 75t-136 27.5h-250zM595 100h-150v100h100v100h-100v300h150q52 0 97.5 -19.5
t79.5 -53.5t53.5 -79.5t19.5 -97.5t-19.5 -97.5t-53.5 -79.5t-79.5 -53.5t-97.5 -19.5z" />
    <glyph glyph-name="ntilde" unicode="&#xf1;" horiz-adv-x="1090" 
d="M783 829l-100 -100l-19 -15q-25 -21 -59 -32q-32 -10 -66.5 -7t-66.5 20q-28 15 -58 5q-11 -2 -25 -13l-19 -16l-63 78l100 100l19 16q29 22 59 31q32 10 66.5 7t66.5 -20q28 -15 58 -5q14 5 25 13l19 16zM698 806q28 9 50 27l-31 39q-14 -11 -34 -18q-40 -13 -76 7
q-28 15 -57.5 17t-57.5 -6q-14 -4 -26.5 -11t-23.5 -16l31 -39q15 13 34 18q40 13 76 -7q28 -14 57.5 -16.5t57.5 5.5zM920 725v-750l-100 -100h-41l-359 343v-243l-100 -100h-150v750l100 100h40l360 -343v243l100 100h150zM795 700v-472l-495 472h-5v-700h100v472
l494 -472h6v700h-100z" />
    <glyph glyph-name="ograve" unicode="&#xf2;" horiz-adv-x="990" 
d="M631 715q62 -15 115 -48.5t91.5 -81.5t60.5 -108t22 -127q0 -78 -29.5 -146t-80.5 -119l-20 -20t-29.5 -30t-30 -30t-20.5 -20q-51 -51 -119 -80.5t-146 -29.5t-146 29.5t-119 80.5t-80.5 119t-29.5 146t29.5 146.5t81.5 119.5l20 20t29.5 30t30 30t20.5 20q60 60 142 89
l-136 41l29 96l100 100l287 -88l-29 -96zM646 149q11 23 17.5 48.5t6.5 52.5q0 46 -17.5 87t-48.5 72t-72 48.5t-87 17.5q-27 0 -52.5 -6.5t-48.5 -17.5q-11 -23 -17.5 -48.5t-6.5 -52.5q0 -47 17.5 -87.5t48.5 -71.5t71.5 -48.5t87.5 -17.5q27 0 52.5 6.5t48.5 17.5z
M672 837l-239 74l-15 -48l239 -74zM895 350q0 72 -27.5 136t-75 111.5t-111.5 75t-136 27.5t-136 -27.5t-111.5 -75t-75 -111.5t-27.5 -136t27.5 -136t75 -111.5t111.5 -75t136 -27.5t136 27.5t111.5 75t75 111.5t27.5 136zM545 600q52 0 97.5 -19.5t79.5 -53.5t53.5 -79.5
t19.5 -97.5t-19.5 -97.5t-53.5 -79.5t-79.5 -53.5t-97.5 -19.5t-97.5 19.5t-79.5 53.5t-53.5 79.5t-19.5 97.5t19.5 97.5t53.5 79.5t79.5 53.5t97.5 19.5z" />
    <glyph glyph-name="oacute" unicode="&#xf3;" horiz-adv-x="990" 
d="M545 725q78 0 146 -29.5t119 -80.5t80.5 -119t29.5 -146t-29.5 -146t-80.5 -119l-20 -20t-29.5 -30t-30 -30t-20.5 -20q-51 -51 -119 -80.5t-146 -29.5t-146 29.5t-119 80.5t-80.5 119t-29.5 146t29.5 146.5t81.5 119.5l20 20t29.5 30t30 30t20.5 20q28 28 63 51l-28 -9
l-29 96l100 100l287 88l29 -96l-100 -100l-70 -21h12zM646 149q11 23 17.5 48.5t6.5 52.5q0 46 -17.5 87t-48.5 72t-72 48.5t-87 17.5q-27 0 -52.5 -6.5t-48.5 -17.5q-11 -23 -17.5 -48.5t-6.5 -52.5q0 -47 17.5 -87.5t48.5 -71.5t71.5 -48.5t87.5 -17.5q27 0 52.5 6.5
t48.5 17.5zM672 863l-15 48l-239 -74l15 -48zM895 350q0 72 -27.5 136t-75 111.5t-111.5 75t-136 27.5t-136 -27.5t-111.5 -75t-75 -111.5t-27.5 -136t27.5 -136t75 -111.5t111.5 -75t136 -27.5t136 27.5t111.5 75t75 111.5t27.5 136zM545 600q52 0 97.5 -19.5t79.5 -53.5
t53.5 -79.5t19.5 -97.5t-19.5 -97.5t-53.5 -79.5t-79.5 -53.5t-97.5 -19.5t-97.5 19.5t-79.5 53.5t-53.5 79.5t-19.5 97.5t19.5 97.5t53.5 79.5t79.5 53.5t97.5 19.5z" />
    <glyph glyph-name="ocircumflex" unicode="&#xf4;" horiz-adv-x="990" 
d="M631 715q62 -15 115 -48.5t91.5 -81.5t60.5 -108t22 -127q0 -78 -29.5 -146t-80.5 -119l-20 -20t-29.5 -30t-30 -30t-20.5 -20q-51 -51 -119 -80.5t-146 -29.5t-146 29.5t-119 80.5t-80.5 119t-29.5 146t29.5 146.5t81.5 119.5l20 20t29.5 30t30 30t20.5 20q28 28 63 51
l-28 -9l-29 96l100 100l158 48l158 -48l-29 -96zM646 149q11 23 17.5 48.5t6.5 52.5q0 46 -17.5 87t-48.5 72t-72 48.5t-87 17.5q-27 0 -52.5 -6.5t-48.5 -17.5q-11 -23 -17.5 -48.5t-6.5 -52.5q0 -47 17.5 -87.5t48.5 -71.5t71.5 -48.5t87.5 -17.5q27 0 52.5 6.5t48.5 17.5
zM545 876l-127 -39l15 -48l112 35l112 -35l15 48zM895 350q0 72 -27.5 136t-75 111.5t-111.5 75t-136 27.5t-136 -27.5t-111.5 -75t-75 -111.5t-27.5 -136t27.5 -136t75 -111.5t111.5 -75t136 -27.5t136 27.5t111.5 75t75 111.5t27.5 136zM545 600q52 0 97.5 -19.5
t79.5 -53.5t53.5 -79.5t19.5 -97.5t-19.5 -97.5t-53.5 -79.5t-79.5 -53.5t-97.5 -19.5t-97.5 19.5t-79.5 53.5t-53.5 79.5t-19.5 97.5t19.5 97.5t53.5 79.5t79.5 53.5t97.5 19.5z" />
    <glyph glyph-name="otilde" unicode="&#xf5;" horiz-adv-x="990" 
d="M920 350q0 -78 -29.5 -146t-80.5 -119l-20 -20t-29.5 -30t-30 -30t-20.5 -20q-51 -51 -119 -80.5t-146 -29.5t-146 29.5t-119 80.5t-80.5 119t-29.5 146t29.5 146.5t81.5 119.5l20 20t29.5 30t30 30t20.5 20q55 55 129 84q-23 8 -46 0q-11 -2 -25 -13l-19 -16l-63 78
l99 100l18 15q14 11 29.5 19t31.5 13q32 10 66.5 7t66.5 -20q27 -14 56 -5q14 3 27 13l18 16l64 -78l-100 -100l-14 -11q64 -13 119.5 -46.5t95.5 -82.5t63 -110t23 -129zM545 700q-72 0 -136 -27.5t-111.5 -75t-75 -111.5t-27.5 -136t27.5 -136t75 -111.5t111.5 -75
t136 -27.5t136 27.5t111.5 75t75 111.5t27.5 136t-27.5 136t-75 111.5t-111.5 75t-136 27.5zM795 350q0 -52 -19.5 -97.5t-53.5 -79.5t-79.5 -53.5t-97.5 -19.5t-97.5 19.5t-79.5 53.5t-53.5 79.5t-19.5 97.5t19.5 97.5t53.5 79.5t79.5 53.5t97.5 19.5t97.5 -19.5
t79.5 -53.5t53.5 -79.5t19.5 -97.5zM670 250q0 46 -17.5 87t-48.5 72t-72 48.5t-87 17.5q-27 0 -52.5 -6.5t-48.5 -17.5q-11 -23 -17.5 -48.5t-6.5 -52.5q0 -47 17.5 -87.5t48.5 -71.5t71.5 -48.5t87.5 -17.5q27 0 52.5 6.5t48.5 17.5q11 23 17.5 48.5t6.5 52.5zM667 872
q-8 -6 -16.5 -11t-17.5 -7q-40 -13 -76 7q-28 15 -57.5 17t-57.5 -6q-28 -9 -50 -27l31 -39q17 14 34 18q40 13 76 -7q28 -15 57.5 -17t56.5 6q28 9 51 27z" />
    <glyph glyph-name="odieresis" unicode="&#xf6;" horiz-adv-x="990" 
d="M348 697q-22 -22 -53 -22t-53 22t-22 53t22 53l100 100q22 22 53 22t53 -22t22 -53t-22 -53zM659 707q57 -18 104.5 -52.5t82.5 -81.5t54.5 -103.5t19.5 -119.5q0 -78 -29.5 -146t-80.5 -119l-20 -20t-29.5 -30t-30 -30t-20.5 -20q-51 -51 -119 -80.5t-146 -29.5
t-146 29.5t-119 80.5t-80.5 119t-29.5 146t29.5 146.5t81.5 119.5l20 20t29.5 30t30 30t20.5 20q48 48 110 76t133 32q-7 20 -2.5 41.5t20.5 37.5l100 100q22 22 53 22t53 -22t22 -53t-22 -53zM646 149q11 23 17.5 48.5t6.5 52.5q0 46 -17.5 87t-48.5 72t-72 48.5t-87 17.5
q-27 0 -52.5 -6.5t-48.5 -17.5q-11 -23 -17.5 -48.5t-6.5 -52.5q0 -47 17.5 -87.5t48.5 -71.5t71.5 -48.5t87.5 -17.5q27 0 52.5 6.5t48.5 17.5zM445 850q0 21 -14.5 35.5t-35.5 14.5t-35.5 -14.5t-14.5 -35.5t14.5 -35.5t35.5 -14.5t35.5 14.5t14.5 35.5zM745 850
q0 21 -14.5 35.5t-35.5 14.5t-35.5 -14.5t-14.5 -35.5t14.5 -35.5t35.5 -14.5t35.5 14.5t14.5 35.5zM895 350q0 72 -27.5 136t-75 111.5t-111.5 75t-136 27.5t-136 -27.5t-111.5 -75t-75 -111.5t-27.5 -136t27.5 -136t75 -111.5t111.5 -75t136 -27.5t136 27.5t111.5 75
t75 111.5t27.5 136zM545 600q52 0 97.5 -19.5t79.5 -53.5t53.5 -79.5t19.5 -97.5t-19.5 -97.5t-53.5 -79.5t-79.5 -53.5t-97.5 -19.5t-97.5 19.5t-79.5 53.5t-53.5 79.5t-19.5 97.5t19.5 97.5t53.5 79.5t79.5 53.5t97.5 19.5z" />
    <glyph glyph-name="divide" unicode="&#xf7;" horiz-adv-x="850" 
d="M750 425v-150l-100 -100h-78q6 -25 0 -50.5t-26 -45.5l-100 -100q-15 -15 -33.5 -22t-37.5 -7t-37.5 7t-33.5 22t-22 33.5t-7 37.5t7 37.5t22 33.5l55 54h-259v150l100 100h78q-6 25 0 50.5t26 45.5l100 100q15 15 33.5 22t37.5 7t37.5 -7t33.5 -22t22 -33.5t7 -37.5
t-7 -37.5t-22 -33.5l-55 -54h259zM550 550q0 31 -22 53t-53 22t-53 -22t-22 -53t22 -53t53 -22t53 22t22 53zM725 400h-500v-100h500v100zM550 150q0 31 -22 53t-53 22t-53 -22t-22 -53t22 -53t53 -22t53 22t22 53z" />
    <glyph glyph-name="oslash" unicode="&#xf8;" horiz-adv-x="1038" 
d="M882 557q29 -45 45.5 -97.5t16.5 -109.5q0 -78 -29.5 -146t-80.5 -119q-6 -6 -20 -20.5t-30 -30t-30 -29.5l-20 -20q-51 -51 -119 -80.5t-146 -29.5q-57 0 -109.5 16.5t-97.5 45.5l-76 -76l-106 106l76 76q-29 45 -45.5 97.5t-16.5 109.5q0 78 29.5 146t80.5 119l20 20
t29.5 30t30 30t20.5 20q51 51 119 80.5t146 29.5q57 0 109.5 -16.5t97.5 -45.5l76 76l106 -106zM469 475q-27 0 -52.5 -6.5t-48.5 -17.5q-11 -23 -17.5 -48.5t-6.5 -52.5q0 -51 22 -97l200 200q-46 22 -97 22zM569 125q27 0 52.5 6.5t48.5 17.5q11 23 17.5 48.5t6.5 52.5
q0 51 -22 97l-200 -200q46 -22 97 -22zM852 704l-73 -74q-45 33 -97.5 51.5t-112.5 18.5q-72 0 -136 -27.5t-111.5 -75t-75 -111.5t-27.5 -136q0 -60 18.5 -112.5t51.5 -97.5l-74 -73l71 -71l73 74q45 -33 97.5 -51.5t112.5 -18.5q72 0 136 27.5t111.5 75t75 111.5t27.5 136
q0 60 -18.5 112.5t-51.5 97.5l74 73zM319 350q0 52 19.5 97.5t53.5 79.5t79.5 53.5t97.5 19.5q38 0 73 -10.5t65 -30.5l-347 -347q-20 30 -30.5 65t-10.5 73zM819 350q0 -52 -19.5 -97.5t-53.5 -79.5t-79.5 -53.5t-97.5 -19.5q-38 0 -73 10.5t-65 30.5l347 347
q20 -30 30.5 -65t10.5 -73z" />
    <glyph glyph-name="ugrave" unicode="&#xf9;" horiz-adv-x="1050" 
d="M900 725v-425q0 -68 -25 -126.5t-70 -103.5q-6 -6 -20.5 -20t-30 -30t-29.5 -30l-20 -20q-45 -45 -103.5 -70t-126.5 -25t-127 25.5t-103 69.5t-69.5 103t-25.5 127v425l100 100h136l-69 21l29 96l100 100l287 -88l-29 -96l-100 -100l-204 63v-421q0 -36 13.5 -68
t37.5 -56t56 -37.5t68 -13.5q34 0 63 12q12 28 12 63v425l100 100h150zM702 837l-239 74l-15 -48l239 -74zM875 700h-100v-400q0 -42 -16 -78.5t-43 -63.5t-63.5 -42.5t-77.5 -15.5q-42 0 -78.5 15.5t-63.5 42.5t-42.5 63.5t-15.5 78.5v400h-100v-400q0 -62 23.5 -117
t64 -95.5t95.5 -64t117 -23.5t117 23.5t95.5 64t64 95.5t23.5 117v400z" />
    <glyph glyph-name="uacute" unicode="&#xfa;" horiz-adv-x="1050" 
d="M900 725v-425q0 -68 -25 -126.5t-70 -103.5q-6 -6 -20.5 -20t-30 -30t-29.5 -30l-20 -20q-45 -45 -103.5 -70t-126.5 -25t-127 25.5t-103 69.5t-69.5 103t-25.5 127v425l100 100h76l-9 29l100 100l287 88l29 -96l-100 -100l-233 -71v-375q0 -36 13.5 -68t37.5 -56
t56 -37.5t68 -13.5q34 0 63 12q12 28 12 63v425l100 100h150zM702 863l-15 48l-239 -74l15 -48zM875 700h-100v-400q0 -42 -16 -78.5t-43 -63.5t-63.5 -42.5t-77.5 -15.5q-42 0 -78.5 15.5t-63.5 42.5t-42.5 63.5t-15.5 78.5v400h-100v-400q0 -62 23.5 -117t64 -95.5
t95.5 -64t117 -23.5t117 23.5t95.5 64t64 95.5t23.5 117v400z" />
    <glyph glyph-name="ucircumflex" unicode="&#xfb;" horiz-adv-x="1050" 
d="M900 725v-425q0 -68 -25 -126.5t-70 -103.5q-6 -6 -20.5 -20t-30 -30t-29.5 -30l-20 -20q-45 -45 -103.5 -70t-126.5 -25t-127 25.5t-103 69.5t-69.5 103t-25.5 127v425l100 100h76l-9 29l100 100l158 48l158 -48l-31 -96l-98 -100l-129 40l-75 -23v-375q0 -36 13.5 -68
t37.5 -56t56 -37.5t68 -13.5q34 0 63 12q12 28 12 63v425l100 100h150zM575 876l-127 -39l15 -48l112 35l112 -35l15 48zM875 700h-100v-400q0 -42 -16 -78.5t-43 -63.5t-63.5 -42.5t-77.5 -15.5q-42 0 -78.5 15.5t-63.5 42.5t-42.5 63.5t-15.5 78.5v400h-100v-400
q0 -62 23.5 -117t64 -95.5t95.5 -64t117 -23.5t117 23.5t95.5 64t64 95.5t23.5 117v400z" />
    <glyph glyph-name="udieresis" unicode="&#xfc;" horiz-adv-x="1050" 
d="M678 697q-22 -22 -53 -22t-53 22t-22 53t22 53l100 100q22 22 53 22t53 -22t22 -53t-22 -53zM900 725v-425q0 -68 -25 -126.5t-70 -103.5q-6 -6 -20.5 -20t-30 -30t-29.5 -30l-20 -20q-45 -45 -103.5 -70t-126.5 -25t-127 25.5t-103 69.5t-69.5 103t-25.5 127v425
l100 100h4q-7 20 -2.5 41t20.5 37l100 100q22 22 53 22t53 -22t22 -53t-22 -53l-78 -78v-419q0 -36 13.5 -68t37.5 -56t56 -37.5t68 -13.5q34 0 63 12q12 28 12 63v425l100 100h150zM475 850q0 21 -14.5 35.5t-35.5 14.5t-35.5 -14.5t-14.5 -35.5t14.5 -35.5t35.5 -14.5
t35.5 14.5t14.5 35.5zM775 850q0 21 -14.5 35.5t-35.5 14.5t-35.5 -14.5t-14.5 -35.5t14.5 -35.5t35.5 -14.5t35.5 14.5t14.5 35.5zM875 700h-100v-400q0 -42 -16 -78.5t-43 -63.5t-63.5 -42.5t-77.5 -15.5q-42 0 -78.5 15.5t-63.5 42.5t-42.5 63.5t-15.5 78.5v400h-100
v-400q0 -62 23.5 -117t64 -95.5t95.5 -64t117 -23.5t117 23.5t95.5 64t64 95.5t23.5 117v400z" />
    <glyph glyph-name="yacute" unicode="&#xfd;" horiz-adv-x="893" 
d="M696 725h177l-302 -481v-269l-100 -100h-150v269l-301 481l100 100h127l-9 29l100 100l287 88l29 -96l-100 -100l-227 -70l151 -239l118 188zM623 863l-15 48l-239 -74l15 -48zM710 700l-214 -340l-213 340h-118l281 -449v-251h100v251l282 449h-118z" />
    <glyph glyph-name="thorn" unicode="&#xfe;" horiz-adv-x="930" 
d="M739 156q-6 -6 -20 -20.5t-29.5 -30l-30 -30l-20.5 -20.5q-37 -37 -87 -58.5t-107 -21.5h-25l-100 -100h-150v750l100 100h150v-100h125q57 0 107 -21.5t87.5 -59t59 -87.5t21.5 -107t-21.5 -107t-59.5 -87zM545 225q6 0 11.5 0.5t11.5 1.5q1 5 1.5 11t0.5 12
q0 26 -10 48.5t-27 39.5t-39.5 27t-48.5 10h-25v-150h125zM395 600v100h-100v-700h100v100h150q52 0 97.5 19.5t79.5 53.5t53.5 79.5t19.5 97.5t-19.5 97.5t-53.5 79.5t-79.5 53.5t-97.5 19.5h-150zM545 200h-150v300h150q31 0 58.5 -12t47.5 -32t32 -47.5t12 -58.5
t-12 -58.5t-32 -47.5t-47.5 -32t-58.5 -12z" />
    <glyph glyph-name="ydieresis" unicode="&#xff;" horiz-adv-x="893" 
d="M599 697q-22 -22 -52.5 -22t-53.5 22q-22 22 -22 53t22 53l100 100q23 22 53.5 22t52.5 -22q23 -22 23 -53t-23 -53zM873 725l-302 -481v-269l-100 -100h-150v269l-301 481l100 100h56q-8 20 -3.5 41t20.5 37l100 100q23 22 53.5 22t52.5 -22q23 -22 23 -53t-23 -53
l-90 -91l169 -269l118 188l100 100h177zM396 850q0 21 -14.5 35.5t-35.5 14.5q-20 0 -35 -14.5t-15 -35.5t15 -35.5t35 -14.5q21 0 35.5 14.5t14.5 35.5zM696 850q0 21 -14.5 35.5t-35.5 14.5q-20 0 -35 -14.5t-15 -35.5t15 -35.5t35 -14.5q21 0 35.5 14.5t14.5 35.5z
M710 700l-214 -340l-213 340h-118l281 -449v-251h100v251l282 449h-118z" />
    <glyph glyph-name="dotlessi" unicode="&#x131;" 
d="M420 -25l-100 -100h-150v750l100 100h150v-750zM395 700h-100v-700h100v700z" />
    <glyph glyph-name="Lslash" unicode="&#x141;" horiz-adv-x="1000" 
d="M900 125v-150l-100 -100h-550v275l-100 -30v156l100 100v249l100 100h150v-275l100 30v-156l-100 -100v-99h400zM475 313l100 29v105l-100 -30v283h-100v-313l-100 -29v-105l100 30v-283h500v100h-400v213z" />
    <glyph glyph-name="lslash" unicode="&#x142;" horiz-adv-x="1000" 
d="M900 125v-150l-100 -100h-550v275l-100 -30v156l100 100v249l100 100h150v-275l100 30v-156l-100 -100v-99h400zM475 313l100 29v105l-100 -30v283h-100v-313l-100 -29v-105l100 30v-283h500v100h-400v213z" />
    <glyph glyph-name="OE" unicode="&#x152;" horiz-adv-x="1305" 
d="M745 475v-125h300v-150l-75 -75h175v-150l-100 -100h-600q-78 0 -146 29.5t-119 80.5t-80.5 119t-29.5 146t29.5 146t80.5 119l100 100q51 51 119 80.5t146 29.5h600v-150l-100 -100h-300zM320 350q0 -40 13.5 -76t36.5 -65t55 -49.5t70 -28.5v344h-50q-27 0 -52.5 -6.5
t-48.5 -17.5q-11 -23 -17.5 -48.5t-6.5 -52.5zM1120 600v100h-575q-72 0 -136 -27.5t-111.5 -75t-75 -111.5t-27.5 -136t27.5 -136t75 -111.5t111.5 -75t136 -27.5h575v100h-400v125h300v100h-300v275h400zM545 100q-52 0 -97.5 19.5t-79.5 53.5t-53.5 79.5t-19.5 97.5
t19.5 97.5t53.5 79.5t79.5 53.5t97.5 19.5h75v-500h-75z" />
    <glyph glyph-name="oe" unicode="&#x153;" horiz-adv-x="1305" 
d="M745 475v-125h300v-150l-75 -75h175v-150l-100 -100h-600q-78 0 -146 29.5t-119 80.5t-80.5 119t-29.5 146t29.5 146t80.5 119l100 100q51 51 119 80.5t146 29.5h600v-150l-100 -100h-300zM320 350q0 -40 13.5 -76t36.5 -65t55 -49.5t70 -28.5v344h-50q-27 0 -52.5 -6.5
t-48.5 -17.5q-11 -23 -17.5 -48.5t-6.5 -52.5zM1120 600v100h-575q-72 0 -136 -27.5t-111.5 -75t-75 -111.5t-27.5 -136t27.5 -136t75 -111.5t111.5 -75t136 -27.5h575v100h-400v125h300v100h-300v275h400zM545 100q-52 0 -97.5 19.5t-79.5 53.5t-53.5 79.5t-19.5 97.5
t19.5 97.5t53.5 79.5t79.5 53.5t97.5 19.5h75v-500h-75z" />
    <glyph glyph-name="Scaron" unicode="&#x160;" horiz-adv-x="780" 
d="M557 871l-112 -34l-112 34l-15 -48l127 -39l127 39zM482 422q40 -7 74.5 -26.5t59.5 -49t39.5 -67t14.5 -79.5q0 -47 -17.5 -87.5t-48.5 -71.5l-100 -100q-31 -31 -71.5 -48.5t-87.5 -17.5q-40 0 -76 13t-65 36.5t-49 55t-29 69.5l100 100l82 29q-40 7 -74.5 26.5
t-59.5 49t-39.5 67t-14.5 79.5q0 47 17.5 87.5t48.5 71.5l100 100q3 4 6.5 7t7.5 6l-113 35l29 95l100 100l129 -39l129 39l29 -95l-92 -92q57 -17 98 -61t55 -103l-100 -100zM377 168q12 -24 36 -36q-12 24 -36 36zM377 468q12 -24 36 -36q-12 24 -36 36zM445 600
q32 0 58 -19t36 -48l95 34q-11 29 -29.5 53.5t-43 42t-54 27.5t-62.5 10q-42 0 -78.5 -16t-63.5 -43t-42.5 -63.5t-15.5 -77.5q0 -42 15.5 -78.5t42.5 -63.5t63.5 -42.5t78.5 -15.5t71 -29t29 -71t-29 -71t-71 -29q-33 0 -58.5 19t-35.5 48l-95 -34q10 -29 29 -53.5
t43.5 -42t54 -27.5t62.5 -10q41 0 77.5 15.5t63.5 42.5t43 63.5t16 78.5q0 41 -16 77.5t-43 63.5t-63.5 43t-77.5 16q-42 0 -71 29t-29 71t29 71t71 29z" />
    <glyph glyph-name="scaron" unicode="&#x161;" horiz-adv-x="780" 
d="M557 871l-112 -34l-112 34l-15 -48l127 -39l127 39zM482 422q40 -7 74.5 -26.5t59.5 -49t39.5 -67t14.5 -79.5q0 -47 -17.5 -87.5t-48.5 -71.5l-100 -100q-31 -31 -71.5 -48.5t-87.5 -17.5q-40 0 -76 13t-65 36.5t-49 55t-29 69.5l100 100l82 29q-40 7 -74.5 26.5
t-59.5 49t-39.5 67t-14.5 79.5q0 47 17.5 87.5t48.5 71.5l100 100q3 4 6.5 7t7.5 6l-113 35l29 95l100 100l129 -39l129 39l29 -95l-92 -92q57 -17 98 -61t55 -103l-100 -100zM377 168q12 -24 36 -36q-12 24 -36 36zM377 468q12 -24 36 -36q-12 24 -36 36zM445 600
q32 0 58 -19t36 -48l95 34q-11 29 -29.5 53.5t-43 42t-54 27.5t-62.5 10q-42 0 -78.5 -16t-63.5 -43t-42.5 -63.5t-15.5 -77.5q0 -42 15.5 -78.5t42.5 -63.5t63.5 -42.5t78.5 -15.5t71 -29t29 -71t-29 -71t-71 -29q-33 0 -58.5 19t-35.5 48l-95 -34q10 -29 29 -53.5
t43.5 -42t54 -27.5t62.5 -10q41 0 77.5 15.5t63.5 42.5t43 63.5t16 78.5q0 41 -16 77.5t-43 63.5t-63.5 43t-77.5 16q-42 0 -71 29t-29 71t29 71t71 29z" />
    <glyph glyph-name="Ydieresis" unicode="&#x178;" horiz-adv-x="893" 
d="M599 697q-22 -22 -52.5 -22t-53.5 22q-22 22 -22 53t22 53l100 100q23 22 53.5 22t52.5 -22q23 -22 23 -53t-23 -53zM873 725l-302 -481v-269l-100 -100h-150v269l-301 481l100 100h56q-8 20 -3.5 41t20.5 37l100 100q23 22 53.5 22t52.5 -22q23 -22 23 -53t-23 -53
l-90 -91l169 -269l118 188l100 100h177zM396 850q0 21 -14.5 35.5t-35.5 14.5q-20 0 -35 -14.5t-15 -35.5t15 -35.5t35 -14.5q21 0 35.5 14.5t14.5 35.5zM696 850q0 21 -14.5 35.5t-35.5 14.5q-20 0 -35 -14.5t-15 -35.5t15 -35.5t35 -14.5q21 0 35.5 14.5t14.5 35.5z
M710 700l-214 -340l-213 340h-118l281 -449v-251h100v251l282 449h-118z" />
    <glyph glyph-name="Zcaron" unicode="&#x17d;" horiz-adv-x="864" 
d="M774 725l-330 -600h313v-150l-100 -100h-567l330 600h-298v150l100 100h15l24 77l100 100l129 -39l128 39l30 -95l-82 -82h208zM617 823l-15 48l-112 -34l-112 34l-15 -48l127 -39zM247 700v-100h316l-331 -600h500v100h-331l331 600h-485z" />
    <glyph glyph-name="zcaron" unicode="&#x17e;" horiz-adv-x="864" 
d="M774 725l-330 -600h313v-150l-100 -100h-567l330 600h-298v150l100 100h15l24 77l100 100l129 -39l128 39l30 -95l-82 -82h208zM617 823l-15 48l-112 -34l-112 34l-15 -48l127 -39zM247 700v-100h316l-331 -600h500v100h-331l331 600h-485z" />
    <glyph glyph-name="florin" unicode="&#x192;" horiz-adv-x="774" 
d="M611 475h48l-20 -150l-100 -100h-44l-17 -123q-8 -59 -49 -100l-100 -100q-29 -28 -67.5 -41.5t-80.5 -7.5q-32 4 -59 18.5t-47 36.5t-32 50t-13 59l100 100l117 24l12 84h-100l21 150l100 100h13l3 22q4 29 16.5 54t32.5 45q7 6 21 20l30 30l30 30l20 20
q28 29 66.5 42.5t80.5 7.5q32 -5 59 -19.5t47 -36.5t31.5 -49.5t13.5 -58.5l-100 -100zM520 579q3 21 19.5 33.5t36.5 9.5q17 -2 28 -13t14 -26l98 20q-9 45 -43 78t-83 40q-31 4 -59.5 -3.5t-51.5 -25t-38.5 -43t-19.5 -56.5l-20 -143h-99l-14 -100h99l-33 -231
q-2 -20 -19 -32.5t-37 -10.5q-17 2 -28 13.5t-14 26.5l-98 -20q9 -46 43.5 -79t82.5 -40q31 -4 59.5 4t51.5 25t38.5 42.5t20.5 56.5l34 245h129l14 100h-129z" />
    <glyph glyph-name="circumflex" unicode="&#x2c6;" horiz-adv-x="616" 
d="M487 758l-101 -100l-128 40l-129 -40l-29 96l100 100l158 48l158 -48zM358 876l-127 -39l15 -48l112 35l112 -35l15 48z" />
    <glyph glyph-name="caron" unicode="&#x2c7;" horiz-adv-x="616" 
d="M516 807l-100 -100l-158 -49l-158 49l29 95l100 100l129 -39l128 39zM485 823l-15 48l-112 -34l-112 34l-15 -48l127 -39z" />
    <glyph glyph-name="dotaccent" unicode="&#x2d9;" horiz-adv-x="450" 
d="M228 697q-22 -22 -53 -22t-53 22t-22 53t22 53l100 100q22 22 53 22t53 -22t22 -53t-22 -53zM325 850q0 21 -14.5 35.5t-35.5 14.5t-35.5 -14.5t-14.5 -35.5t14.5 -35.5t35.5 -14.5t35.5 14.5t14.5 35.5z" />
    <glyph glyph-name="ring" unicode="&#x2da;" horiz-adv-x="502" 
d="M372 946q15 -15 22 -33.5t7 -37.5t-7 -37.5t-22 -33.5q-8 -7 -21.5 -21t-28.5 -29l-29 -29l-21 -21q-15 -15 -33.5 -22t-37.5 -7t-37.5 7t-33.5 22t-22 33.5t-7 37.5t7 37.5t22 33.5l21 21l29 29t29 28.5t21 21.5q15 15 33.5 22t37.5 7t37.5 -7t33.5 -22zM376 875
q0 31 -22 53t-53 22t-53 -22t-22 -53t22 -53t53 -22t53 22t22 53zM301 900q11 0 18 -7t7 -18t-7 -18t-18 -7t-18 7t-7 18t7 18t18 7z" />
    <glyph glyph-name="tilde" unicode="&#x2dc;" horiz-adv-x="676" 
d="M576 829l-100 -100l-19 -15q-25 -21 -59 -32q-32 -10 -67 -7t-67 20q-26 15 -57 5q-11 -2 -25 -13l-19 -16l-63 78l100 100l19 15q25 21 59 32q32 10 66.5 7t66.5 -20q28 -15 58 -5q7 2 13 5t12 8l19 16zM490 806q28 9 51 27l-31 39q-8 -6 -16.5 -11t-17.5 -7
q-40 -13 -76 7q-28 15 -57.5 17t-57.5 -6q-28 -9 -50 -27l31 -39q17 14 34 18q40 13 76 -7q28 -15 57.5 -17t56.5 6z" />
    <glyph glyph-name="endash" unicode="&#x2013;" horiz-adv-x="850" 
d="M750 425v-150l-100 -100h-550v150l100 100h550zM725 300v100h-500v-100h500z" />
    <glyph glyph-name="emdash" unicode="&#x2014;" horiz-adv-x="1350" 
d="M1250 425v-150l-100 -100h-1050v150l100 100h1050zM1225 300v100h-1000v-100h1000z" />
    <glyph glyph-name="quoteleft" unicode="&#x2018;" horiz-adv-x="450" 
d="M350 725v-250l-100 -100h-150v131l59 119l100 100h91zM225 600v-100h100v200h-50z" />
    <glyph glyph-name="quoteright" unicode="&#x2019;" horiz-adv-x="450" 
d="M200 725h150v-131l-60 -119l-100 -100h-90v250zM325 600v100h-100v-200h50z" />
    <glyph glyph-name="quotesinglbase" unicode="&#x201a;" horiz-adv-x="450" 
d="M200 125h150v-131l-60 -119l-100 -100h-90v250zM325 0v100h-100v-200h50z" />
    <glyph glyph-name="quotedblleft" unicode="&#x201c;" horiz-adv-x="650" 
d="M459 725h91v-250l-100 -100h-150v50l-50 -50h-150v131l59 119l100 100h91v-119l9 19zM425 600v-100h100v200h-50zM225 600v-100h100v200h-50z" />
    <glyph glyph-name="quotedblright" unicode="&#x201d;" horiz-adv-x="650" 
d="M400 725h150v-131l-59 -119l-101 -100h-90v119l-9 -19l-101 -100h-90v250l100 100h150v-50zM525 600v100h-100v-200h50zM325 600v100h-100v-200h50z" />
    <glyph glyph-name="quotedblbase" unicode="&#x201e;" horiz-adv-x="650" 
d="M400 125h150v-131l-59 -119l-101 -100h-90v119l-9 -19l-101 -100h-90v250l100 100h150v-50zM525 0v100h-100v-200h50zM325 0v100h-100v-200h50z" />
    <glyph glyph-name="dagger" unicode="&#x2020;" horiz-adv-x="750" 
d="M650 575v-150l-100 -100h-50v-350l-100 -100h-150v450h-150v150l100 100h50v50l100 100h150v-150h150zM475 550v150h-100v-150h-150v-100h150v-450h100v450h150v100h-150z" />
    <glyph glyph-name="daggerdbl" unicode="&#x2021;" horiz-adv-x="750" 
d="M550 325h-50v-50h150v-150l-100 -100h-50v-50l-100 -100h-150v150h-150v150l100 100h50v50h-150v150l100 100h50v50l100 100h150v-150h150v-150zM625 550h-150v150h-100v-150h-150v-100h150v-200h-150v-100h150v-150h100v150h150v100h-150v200h150v100z" />
    <glyph glyph-name="bullet" unicode="&#x2022;" horiz-adv-x="550" 
d="M313 161q-17 -17 -39.5 -26.5t-48.5 -9.5t-48.5 10t-39.5 27t-27 39.5t-10 48.5t9.5 48.5t26.5 39.5l101 101q17 17 39.5 26.5t48.5 9.5t48.5 -10t39.5 -27t27 -39.5t10 -48.5t-9.5 -48.5t-26.5 -39.5zM425 350q0 42 -29 71t-71 29t-71 -29t-29 -71t29 -71t71 -29t71 29
t29 71z" />
    <glyph glyph-name="ellipsis" unicode="&#x2026;" horiz-adv-x="1000" 
d="M100 25l100 100h150v-150l-100 -100h-150v150zM325 0v100h-100v-100h100zM375 25l100 100h150v-150l-100 -100h-150v150zM600 0v100h-100v-100h100zM650 25l100 100h150v-150l-100 -100h-150v150zM875 0v100h-100v-100h100z" />
    <glyph glyph-name="perthousand" unicode="&#x2030;" horiz-adv-x="1389" 
d="M1119 275q31 0 58 -12t47.5 -32t32.5 -47.5t12 -58.5t-12 -58.5t-32 -47.5q-7 -6 -21 -20t-29.5 -30t-29.5 -30l-20 -20q-21 -20 -48 -32t-58 -12t-58 11.5t-47 31t-32 46.5t-13 57l-2 -2l-100 -100q-20 -20 -47.5 -32t-58.5 -12t-58.5 12t-47.5 32t-32 47.5t-12 58.5
t12 58.5t32 47.5l100 100q20 20 47 32t59 12q30 0 57 -11.5t47 -31t32.5 -46.5t13.5 -57q0 1 0.5 1t0.5 1q7 6 21 20t29.5 30t29.5 30t21 20q20 20 47 32t59 12zM477 469q-6 -6 -20.5 -20t-30 -30t-30 -30t-20.5 -20q-20 -20 -47.5 -32t-58.5 -12t-58.5 12t-47.5 32
t-32 47.5t-12 58.5t12 58.5t32 47.5l100 100q20 20 47.5 32t58.5 12t58.5 -12t48 -32t32.5 -47.5t12 -58.5t-12 -58.5t-32 -47.5zM495 575q0 26 -10 48.5t-27 39.5t-39.5 27t-48.5 10t-48.5 -10t-39.5 -27t-27 -39.5t-10 -48.5t10 -48.5t27 -39.5t39.5 -27t48.5 -10t48.5 10
t39.5 27t27 39.5t10 48.5zM370 650q31 0 53 -22t22 -53t-22 -53t-53 -22t-53 22t-22 53t22 53t53 22zM334 -49l-101 -100l-99 76l548 723l100 100l100 -76zM846 669l-60 46l-517 -684l60 -45zM1244 125q0 26 -10 48.5t-27 39.5t-39.5 27t-48.5 10t-48.5 -10t-39.5 -27
t-27 -39.5t-10 -48.5t10 -48.5t27 -39.5t39.5 -27t48.5 -10t48.5 10t39.5 27t27 39.5t10 48.5zM1119 200q31 0 53 -22t22 -53t-22 -53t-53 -22q-32 0 -53.5 22t-21.5 53t21.5 53t53.5 22zM886 125q0 26 -10 48.5t-27 39.5t-39.5 27t-48.5 10t-48.5 -10t-39.5 -27t-27 -39.5
t-10 -48.5t10 -48.5t27 -39.5t39.5 -27t48.5 -10t48.5 10t39.5 27t27 39.5t10 48.5zM761 200q31 0 53 -22t22 -53t-22 -53t-53 -22q-32 0 -53.5 22t-21.5 53t21.5 53t53.5 22z" />
    <glyph glyph-name="guilsinglleft" unicode="&#x2039;" horiz-adv-x="511" 
d="M451 196l-100 -100l-123 -86l-168 240l168 240l100 100l123 -86l-108 -154zM191 350l143 -205l82 58l-103 147l103 147l-82 58z" />
    <glyph glyph-name="guilsinglright" unicode="&#x203a;" horiz-adv-x="511" 
d="M284 110l-101 -100l-123 86l108 154l-108 154l101 100l123 86l167 -240zM195 497l103 -147l-103 -147l82 -58l143 205l-143 205z" />
    <glyph glyph-name="fraction" unicode="&#x2044;" horiz-adv-x="807" 
d="M777 674l-548 -723l-99 -100l-100 76l548 723l100 100zM225 -14l517 683l-59 46l-518 -684z" />
    <glyph glyph-name="Euro" unicode="&#x20ac;" horiz-adv-x="1039" 
d="M850 235l119 -91l-15 -20q-8 -11 -16 -20t-17 -18q-6 -6 -20.5 -21t-31 -31t-30.5 -30l-18 -18q-51 -52 -119.5 -81.5t-146.5 -29.5q-54 0 -104 14.5t-92.5 41t-77 63t-58.5 81.5h-143l37 150l50 50h-69l37 150l100 100h65l91 91q51 51 118.5 80t145.5 29q92 0 170 -40.5
t129 -108.5l15 -20l-100 -100l-119 -91l-15 20q-21 28 -49.5 48.5t-63.5 31.5l-23 -90l-50 -50h70l-38 -150l-25 -27q46 -23 99 -23q65 0 119 34zM655 100q-62 0 -113.5 27t-86.5 73h107l25 100h-177q-2 12 -3.5 24.5t-1.5 25.5t1.5 25.5t3.5 24.5h170l25 100h-150
q35 46 86.5 73t113.5 27t113.5 -27t86.5 -73l79 61q-48 63 -120.5 101t-158.5 38q-53 0 -101 -14.5t-88.5 -41t-73 -63.5t-53.5 -81h-84l-25 -100h78q-3 -24 -3 -50t3 -50h-71l-25 -100h127q21 -44 53.5 -81t73 -63.5t88.5 -41t101 -14.5q86 0 158.5 38t120.5 101l-79 61
q-35 -46 -86.5 -73t-113.5 -27z" />
    <glyph glyph-name="uni2116" unicode="&#x2116;" horiz-adv-x="1496" 
d="M1316 273q-6 -7 -20 -20.5t-28 -27.5l-35 -35h83v-150l-100 -100h-307v150l53 53q-47 29 -74 77q-7 -60 -13 -121t-10 -121l-100 -100l-135 -20l-119 287q-16 -38 -37 -71.5t-47 -60.5q-6 -6 -23 -23.5t-35.5 -35.5t-33 -32.5l-15.5 -15.5q-38 -35 -86.5 -55.5
t-111.5 -20.5l-32 1v151l100 100q17 -1 34 -2.5t41 5.5q20 43 33.5 96t22 108.5t12.5 109t5 96.5t1 71.5v33.5l100 101l137 26l114 -277q16 80 36 149.5t46 109.5l100 100l128 -75q-21 -44 -39.5 -113t-34.5 -155l98 98q28 28 65.5 44t80.5 16t80.5 -16t65.5 -44t44 -65.5
t16 -80.5t-15.5 -80t-44.5 -65zM1291 65v100h-257v-100h257zM1251 418q0 -34 -24 -57.5t-57 -23.5q-34 0 -57.5 23.5t-23.5 57.5t23.5 57.5t57.5 23.5q33 0 57 -23.5t24 -57.5zM1170 599q-38 0 -70.5 -14t-57.5 -39t-39 -58t-14 -70q0 -38 14 -70.5t39 -57.5t57.5 -39
t70.5 -14q37 0 70 14t58 39t39 57.5t14 70.5q0 37 -14 70t-39 58t-58 39t-70 14zM841 0q13 147 29.5 268.5t34 213.5t34 153t29.5 89l-87 50q-13 -22 -24.5 -58t-22 -80.5t-20 -93t-17.5 -96.5q-18 -112 -34 -240l-202 493l-97 -19q0 -135 -12.5 -251t-41.5 -201t-77 -131.5
t-118 -41.5v-100q70 -1 126.5 26t99 86.5t71 154.5t42.5 229l191 -466z" />
    <glyph glyph-name="trademark" unicode="&#x2122;" horiz-adv-x="676" 
d="M525 725h81v-251l-100 -100h-90v44l-44 -44h-90v55l-55 -55h-90v161h-67v90l100 100h293l25 -37zM262 660v-161h40v161h67v40h-174v-40h67zM494 635l-44 65h-43v-201h40v134l47 -69l47 69v-134h40v201h-43z" />
    <glyph glyph-name="minus" unicode="&#x2212;" horiz-adv-x="850" 
d="M750 275l-100 -100h-550v150l100 100h550v-150zM725 400h-500v-100h500v100z" />
    </font>
</defs>
</svg>
